<svg width="118" height="118" viewBox="0 0 118 118" fill="none" xmlns="http://www.w3.org/2000/svg">
<circle cx="59" cy="59" r="59" fill="#A4A4A4"/>
<path d="M29.8303 16.416L40.7781 30.2021C41.1387 30.6562 41.8537 30.2353 41.6316 29.6996L34.7385 13.0752C34.6161 12.7799 34.2518 12.6738 33.9899 12.8571L29.9351 15.6954C29.6992 15.8606 29.6512 16.1904 29.8303 16.416Z" fill="black"/>
<path d="M42.2401 10.5336L49.4396 26.5323C49.6795 27.0656 50.483 26.824 50.389 26.2468L47.5892 9.04818C47.5415 8.75518 47.2506 8.56803 46.9642 8.64613L42.5645 9.84604C42.2681 9.92688 42.114 10.2534 42.2401 10.5336Z" fill="black"/>
<path d="M55.0897 7.07685L57.9233 25.2928C58.013 25.8695 58.8499 25.8513 58.9143 25.2711L60.9383 7.05522C60.9712 6.75903 60.7394 6.5 60.4414 6.5H55.5838C55.277 6.5 55.0426 6.77372 55.0897 7.07685Z" fill="black"/>
<circle cx="58.5" cy="59.5" r="25.5" fill="#373737"/>
<path d="M68.9254 8.62635L66.9194 25.4772C66.8509 26.0525 67.6519 26.2643 67.8767 25.7304L74.2961 10.4843C74.407 10.2208 74.2748 9.91812 74.0061 9.82041L69.5928 8.21556C69.2899 8.10543 68.9635 8.30635 68.9254 8.62635Z" fill="black"/>
<path d="M81.7673 13.0894L75.7037 28.4507C75.4934 28.9834 76.1985 29.3939 76.558 28.9481L86.664 16.4166C86.8458 16.1912 86.7987 15.8591 86.5616 15.6931L82.5191 12.8634C82.2544 12.6781 81.886 12.7888 81.7673 13.0894Z" fill="black"/>
<path d="M92.6569 20.4803L82.438 34.7868C82.1043 35.254 82.6925 35.8234 83.1486 35.4746L97.0463 24.8469C97.2866 24.6632 97.31 24.31 97.0962 24.0962L93.4174 20.4174C93.1989 20.1989 92.8365 20.2289 92.6569 20.4803Z" fill="black"/>
<path d="M101.063 30.8711L87.5078 42.3722C87.0709 42.7429 87.4995 43.4377 88.0269 43.2136L104.457 36.2308C104.741 36.11 104.849 35.7628 104.683 35.5022L101.808 30.9839C101.645 30.7281 101.294 30.6749 101.063 30.8711Z" fill="black"/>
<path d="M107.455 42.7454L91.1869 50.0659C90.6598 50.3031 90.8887 51.0969 91.4612 51.017L108.949 48.5769C109.243 48.5358 109.437 48.2487 109.365 47.9604L108.145 43.0801C108.069 42.7778 107.739 42.6175 107.455 42.7454Z" fill="black"/>
<path d="M109.939 56.5684L93.3935 58.5862C92.8215 58.6559 92.8019 59.4784 93.3699 59.5753L109.916 62.4003C110.221 62.4524 110.5 62.2172 110.5 61.9074V57.0647C110.5 56.7645 110.237 56.532 109.939 56.5684Z" fill="black"/>
<path d="M108.935 69.9343L91.448 67.9009C90.8744 67.8342 90.6632 68.6319 91.1947 68.8578L107.461 75.7711C107.744 75.8913 108.067 75.7303 108.142 75.4322L109.362 70.5522C109.435 70.2595 109.234 69.9691 108.935 69.9343Z" fill="black"/>
<path d="M104.44 82.7761L88.0183 76.2073C87.4873 75.9949 87.0733 76.6963 87.516 77.0585L101.064 88.1433C101.296 88.333 101.642 88.2775 101.802 88.0247L104.676 83.5087C104.844 83.2445 104.731 82.8924 104.44 82.7761Z" fill="black"/>
<path d="M97.0341 94.13L83.2845 83.2113C82.8307 82.8509 82.2299 83.4219 82.5667 83.8934L92.6767 98.0474C92.8494 98.2892 93.1936 98.3279 93.4157 98.1305L97.0553 94.8953C97.2874 94.6889 97.2773 94.3231 97.0341 94.13Z" fill="black"/>
<path d="M81.7893 105.938L75.7676 89.8802C75.5637 89.3365 76.2946 88.9406 76.6386 89.4085L86.6747 103.058C86.8492 103.295 86.7817 103.631 86.5291 103.783L82.5147 106.191C82.2469 106.352 81.8989 106.23 81.7893 105.938Z" fill="black"/>
<path d="M68.93 109.926L66.934 93.5584C66.8637 92.9825 67.666 92.7692 67.8911 93.3038L74.2785 108.474C74.3958 108.752 74.2409 109.071 73.9492 109.15L69.5579 110.348C69.2637 110.428 68.9669 110.229 68.93 109.926Z" fill="black"/>
<path d="M56.0684 110.939L58.0862 94.3935C58.1559 93.8215 58.9784 93.8019 59.0753 94.3699L61.9003 110.916C61.9524 111.221 61.7172 111.5 61.4074 111.5H56.5647C56.2645 111.5 56.032 111.237 56.0684 110.939Z" fill="black"/>
<path d="M42.7049 108.481L48.6912 93.3158C48.904 92.7766 49.7102 92.9709 49.6539 93.5479L48.0575 109.91C48.0275 110.219 47.7272 110.426 47.4283 110.344L43.0384 109.147C42.7511 109.068 42.5956 108.758 42.7049 108.481Z" fill="black"/>
<path d="M30.3903 102.996L39.602 91.0974C39.9614 90.6332 40.6882 91.0609 40.457 91.6004L34.6996 105.034C34.5898 105.29 34.2917 105.407 34.037 105.294L30.5826 103.759C30.2861 103.627 30.1917 103.252 30.3903 102.996Z" fill="black"/>
<path d="M20.4939 94.0959L33.246 83.6624C33.7042 83.2875 34.3187 83.8793 33.9611 84.3513L24.3005 97.1034C24.1343 97.3227 23.8221 97.3666 23.6019 97.2014L20.5105 94.8829C20.2508 94.6881 20.2427 94.3014 20.4939 94.0959Z" fill="black"/>
<path d="M12.5707 82.7597L27.9446 76.2865C28.4733 76.0639 28.8994 76.7618 28.4599 77.1304L15.918 87.6494C15.6933 87.8379 15.3553 87.7933 15.1871 87.553L12.3551 83.5073C12.1724 83.2463 12.2771 82.8833 12.5707 82.7597Z" fill="black"/>
<path d="M7.61116 69.9289L25.1608 67.8883C25.7318 67.8219 25.9453 68.6136 25.4184 68.8433L9.50123 75.7815C9.23195 75.8989 8.91999 75.76 8.82709 75.4813L7.19457 70.5837C7.09424 70.2827 7.296 69.9656 7.61116 69.9289Z" fill="black"/>
<path d="M6.08034 56.5945L23.4613 59.4239C24.034 59.5172 24.015 60.3471 23.4388 60.4141L6.05775 62.4351C5.76073 62.4697 5.5 62.2375 5.5 61.9385V57.088C5.5 56.7798 5.77614 56.545 6.08034 56.5945Z" fill="black"/>
<path d="M9.57993 42.7379L25.3549 49.2097C25.8876 49.4282 25.6896 50.2258 25.1165 50.1699L8.53263 48.552C8.2445 48.5239 8.04039 48.2577 8.08798 47.9721L8.89695 43.1183C8.94972 42.8017 9.28294 42.6161 9.57993 42.7379Z" fill="black"/>
<path d="M15.9392 30.8967L28.6555 42.3824C29.0781 42.7641 28.636 43.4424 28.1162 43.2099L12.5285 36.2364C12.25 36.1118 12.147 35.769 12.3108 35.5116L15.1822 30.9993C15.3484 30.7382 15.7095 30.6892 15.9392 30.8967Z" fill="black"/>
<path d="M24.3642 20.5099L34.4616 34.6463C34.7978 35.1169 34.1996 35.6876 33.7453 35.3297L20.4168 24.8284C20.1907 24.6503 20.1613 24.3185 20.3525 24.1034L23.5837 20.4684C23.7969 20.2285 24.1777 20.2488 24.3642 20.5099Z" fill="black"/>
<circle cx="75.5" cy="41.5" r="10.5" fill="white"/>
</svg>
