<svg width="100%" height="100%" viewBox="0 0 180 124" fill="none" xmlns="http://www.w3.org/2000/svg">
    <path fill-rule="evenodd" clip-rule="evenodd" d="M160.5 3.58779C105.4 18.1458 61.6342 36.4708 34.7092 56.2598C28.0892 61.1238 27.9622 61.3008 29.6972 63.2178C33.6302 67.5638 34.5272 67.4128 42.2332 61.1028C64.6492 42.7508 102.656 24.6518 156 6.92779C167.275 3.18179 175.825 0.12479 175 0.13479C174.175 0.14579 167.65 1.69879 160.5 3.58779ZM14.7372 13.7278C4.54319 17.5198 -0.014804 23.6918 0.022196 33.6508C0.038196 38.0398 0.724196 40.8108 2.7722 44.7548C9.9122 58.5068 28.5032 74.6898 53.0002 88.4798C64.0062 94.6748 78.6332 101.289 80.1842 100.772C80.7722 100.576 74.6892 96.4868 66.6662 91.6848C40.7002 76.1408 23.2442 61.6698 17.9582 51.3018C14.7862 45.0818 14.6152 37.3608 17.5592 33.3228C18.6912 31.7698 21.6162 29.4548 24.0592 28.1778C28.1312 26.0488 29.4552 25.8918 40.0002 26.2768C48.2192 26.5778 54.4962 27.4808 62.0002 29.4408L72.5002 32.1828L79.4482 28.9918C87.4642 25.3098 87.5642 25.4708 74.4042 20.9108C56.7202 14.7828 47.3242 12.8498 33.0002 12.3898C21.7892 12.0298 18.6922 12.2568 14.7372 13.7278ZM91.5002 33.9608C86.4982 36.3018 85.8332 36.8928 87.5002 37.5128C106.454 44.5558 150.139 64.9538 172.919 77.3968C177.549 79.9258 181.509 81.8248 181.717 81.6158C182.085 81.2478 165.105 68.4998 155.996 62.3048C140.807 51.9768 102.13 30.8718 98.7632 31.0768C98.0682 31.1188 94.8002 32.4168 91.5002 33.9608ZM80.7322 61.0208C79.2092 67.3338 77.9722 72.8458 77.9822 73.2688C77.9922 73.6918 79.1052 73.7608 80.4562 73.4218C82.8912 72.8108 82.9152 72.8728 83.2062 80.6528L83.5002 88.4998L86.2992 77.9998C87.8382 72.2248 89.3292 66.7178 89.6122 65.7618C90.0462 64.2988 89.6502 64.1198 87.1082 64.6278L84.0882 65.2318L83.7942 57.3868L83.5002 49.5408L80.7322 61.0208ZM15.7912 73.7438C6.0202 85.9878 2.3712 101.268 6.8162 111.318C11.5682 122.061 27.2392 126.447 46.5902 122.45C65.2922 118.587 87.7132 108.535 107.62 95.0898C125.578 82.9598 125.843 82.3018 109.5 90.4138C72.0422 109.008 44.6172 115.484 31.3012 108.881C21.7682 104.153 19.2402 91.6798 25.4882 80.1998L28.2242 75.1718L24.8622 72.1148C23.0132 70.4338 21.0502 69.0668 20.5002 69.0768C19.9502 69.0878 17.8312 71.1878 15.7912 73.7438Z" fill="black"/>
    <path fill-rule="evenodd" clip-rule="evenodd" d="M17.4998 13.4519C14.7498 14.2549 12.1778 14.9319 11.7848 14.9559C9.93176 15.0699 3.49176 21.9099 1.86476 25.4909C-1.60824 33.1369 -0.385237 39.4319 6.65676 50.1549C16.0238 64.4189 39.5048 81.9889 66.4998 94.9329C81.5688 102.159 82.8058 101.932 69.9908 94.2909C41.7568 77.4559 22.0808 61.3069 17.1638 50.9339C14.3608 45.0209 14.3058 37.6509 17.0298 33.1819C22.1388 24.8029 38.9228 23.1119 60.9508 28.7579L72.4018 31.6919L78.8988 28.7469C86.5128 25.2939 86.7138 25.5219 71.5778 20.4569C49.8398 13.1829 28.0778 10.3639 17.4998 13.4519ZM92.6828 33.8949L86.8648 36.6189L102.183 42.9279C118.796 49.7709 153.344 66.2959 169.75 75.2459C175.387 78.3219 180 80.6949 180 80.5199C180 79.0479 148.665 57.6949 134.576 49.5659C125.616 44.3959 99.4138 30.8749 98.7638 31.0859C98.6188 31.1329 95.8818 32.3969 92.6828 33.8949Z" fill="black"/>
</svg>
