<svg width="100%" height="100%" viewBox="0 0 494 124" fill="none" xmlns="http://www.w3.org/2000/svg">
<path fill-rule="evenodd" clip-rule="evenodd" d="M160.5 3.58779C105.4 18.1458 61.6342 36.4708 34.7092 56.2598C28.0892 61.1238 27.9622 61.3008 29.6972 63.2178C33.6302 67.5638 34.5272 67.4128 42.2332 61.1028C64.6492 42.7508 102.656 24.6518 156 6.92779C167.275 3.18179 175.825 0.12479 175 0.13479C174.175 0.14579 167.65 1.69879 160.5 3.58779ZM14.7372 13.7278C4.54319 17.5198 -0.014804 23.6918 0.022196 33.6508C0.038196 38.0398 0.724196 40.8108 2.7722 44.7548C9.9122 58.5068 28.5032 74.6898 53.0002 88.4798C64.0062 94.6748 78.6332 101.289 80.1842 100.772C80.7722 100.576 74.6892 96.4868 66.6662 91.6848C40.7002 76.1408 23.2442 61.6698 17.9582 51.3018C14.7862 45.0818 14.6152 37.3608 17.5592 33.3228C18.6912 31.7698 21.6162 29.4548 24.0592 28.1778C28.1312 26.0488 29.4552 25.8918 40.0002 26.2768C48.2192 26.5778 54.4962 27.4808 62.0002 29.4408L72.5002 32.1828L79.4482 28.9918C87.4642 25.3098 87.5642 25.4708 74.4042 20.9108C56.7202 14.7828 47.3242 12.8498 33.0002 12.3898C21.7892 12.0298 18.6922 12.2568 14.7372 13.7278ZM91.5002 33.9608C86.4982 36.3018 85.8332 36.8928 87.5002 37.5128C106.454 44.5558 150.139 64.9538 172.919 77.3968C177.549 79.9258 181.509 81.8248 181.717 81.6158C182.085 81.2478 165.105 68.4998 155.996 62.3048C140.807 51.9768 102.13 30.8718 98.7632 31.0768C98.0682 31.1188 94.8002 32.4168 91.5002 33.9608ZM80.7322 61.0208C79.2092 67.3338 77.9722 72.8458 77.9822 73.2688C77.9922 73.6918 79.1052 73.7608 80.4562 73.4218C82.8912 72.8108 82.9152 72.8728 83.2062 80.6528L83.5002 88.4998L86.2992 77.9998C87.8382 72.2248 89.3292 66.7178 89.6122 65.7618C90.0462 64.2988 89.6502 64.1198 87.1082 64.6278L84.0882 65.2318L83.7942 57.3868L83.5002 49.5408L80.7322 61.0208ZM15.7912 73.7438C6.0202 85.9878 2.3712 101.268 6.8162 111.318C11.5682 122.061 27.2392 126.447 46.5902 122.45C65.2922 118.587 87.7132 108.535 107.62 95.0898C125.578 82.9598 125.843 82.3018 109.5 90.4138C72.0422 109.008 44.6172 115.484 31.3012 108.881C21.7682 104.153 19.2402 91.6798 25.4882 80.1998L28.2242 75.1718L24.8622 72.1148C23.0132 70.4338 21.0502 69.0668 20.5002 69.0768C19.9502 69.0878 17.8312 71.1878 15.7912 73.7438Z" fill="black"/>
<path fill-rule="evenodd" clip-rule="evenodd" d="M17.4998 13.4519C14.7498 14.2549 12.1778 14.9319 11.7848 14.9559C9.93176 15.0699 3.49176 21.9099 1.86476 25.4909C-1.60824 33.1369 -0.385237 39.4319 6.65676 50.1549C16.0238 64.4189 39.5048 81.9889 66.4998 94.9329C81.5688 102.159 82.8058 101.932 69.9908 94.2909C41.7568 77.4559 22.0808 61.3069 17.1638 50.9339C14.3608 45.0209 14.3058 37.6509 17.0298 33.1819C22.1388 24.8029 38.9228 23.1119 60.9508 28.7579L72.4018 31.6919L78.8988 28.7469C86.5128 25.2939 86.7138 25.5219 71.5778 20.4569C49.8398 13.1829 28.0778 10.3639 17.4998 13.4519ZM92.6828 33.8949L86.8648 36.6189L102.183 42.9279C118.796 49.7709 153.344 66.2959 169.75 75.2459C175.387 78.3219 180 80.6949 180 80.5199C180 79.0479 148.665 57.6949 134.576 49.5659C125.616 44.3959 99.4138 30.8749 98.7638 31.0859C98.6188 31.1329 95.8818 32.3969 92.6828 33.8949Z" fill="black"/>
<path d="M213.416 51.576C211.304 51.576 209.384 51.176 207.656 50.376C205.928 49.576 204.456 48.424 203.24 46.92C202.024 45.416 201.08 43.592 200.408 41.448C199.736 39.304 199.4 36.904 199.4 34.248C199.4 31.464 199.736 29 200.408 26.856C201.08 24.712 202.008 22.904 203.192 21.432C204.408 19.96 205.864 18.84 207.56 18.072C209.256 17.304 211.128 16.92 213.176 16.92C215.256 16.92 216.984 17.272 218.36 17.976C219.768 18.648 220.696 19.496 221.144 20.52H221.336V17.496H224.792V27.288H221.336V24.792C221.336 23.192 220.632 21.912 219.224 20.952C217.816 19.96 215.976 19.464 213.704 19.464C212.008 19.464 210.536 19.784 209.288 20.424C208.072 21.032 207.064 21.88 206.264 22.968C205.496 24.024 204.92 25.272 204.536 26.712C204.184 28.12 204.008 29.608 204.008 31.176V36.984C204.008 38.744 204.232 40.328 204.68 41.736C205.16 43.144 205.832 44.36 206.696 45.384C207.592 46.376 208.68 47.144 209.96 47.688C211.24 48.232 212.696 48.504 214.328 48.504C216.6 48.504 218.504 47.912 220.04 46.728C221.576 45.544 222.696 44.04 223.4 42.216L225.272 43.128C224.984 44.056 224.52 45.016 223.88 46.008C223.24 47 222.424 47.912 221.432 48.744C220.472 49.576 219.32 50.264 217.976 50.808C216.632 51.32 215.112 51.576 213.416 51.576Z" fill="black"/>
<path d="M241.239 49.224C242.423 49.224 243.447 49.032 244.311 48.648C245.207 48.232 245.927 47.672 246.471 46.968C247.047 46.232 247.463 45.384 247.719 44.424C248.007 43.432 248.151 42.36 248.151 41.208V36.024C248.151 34.872 248.007 33.816 247.719 32.856C247.463 31.864 247.047 31.016 246.471 30.312C245.927 29.576 245.207 29.016 244.311 28.632C243.447 28.216 242.423 28.008 241.239 28.008C240.023 28.008 238.983 28.216 238.119 28.632C237.255 29.016 236.535 29.576 235.959 30.312C235.415 31.016 234.999 31.864 234.711 32.856C234.455 33.816 234.327 34.872 234.327 36.024V41.208C234.327 42.36 234.455 43.432 234.711 44.424C234.999 45.384 235.415 46.232 235.959 46.968C236.535 47.672 237.255 48.232 238.119 48.648C238.983 49.032 240.023 49.224 241.239 49.224ZM241.239 51.576C239.543 51.576 237.991 51.272 236.583 50.664C235.175 50.056 233.975 49.192 232.983 48.072C231.991 46.92 231.223 45.56 230.679 43.992C230.135 42.392 229.863 40.6 229.863 38.616C229.863 36.664 230.135 34.888 230.679 33.288C231.223 31.688 231.991 30.328 232.983 29.208C233.975 28.056 235.175 27.176 236.583 26.568C237.991 25.96 239.543 25.656 241.239 25.656C242.935 25.656 244.487 25.96 245.895 26.568C247.303 27.176 248.503 28.056 249.495 29.208C250.487 30.328 251.255 31.688 251.799 33.288C252.343 34.888 252.615 36.664 252.615 38.616C252.615 40.6 252.343 42.392 251.799 43.992C251.255 45.56 250.487 46.92 249.495 48.072C248.503 49.192 247.303 50.056 245.895 50.664C244.487 51.272 242.935 51.576 241.239 51.576Z" fill="black"/>
<path d="M256.477 48.792H260.029V18.216L256.477 17.592V15.912L263.965 14.52V48.792H267.517V51H256.477V48.792Z" fill="black"/>
<path d="M270.867 48.792H274.419V18.216L270.867 17.592V15.912L278.355 14.52V48.792H281.907V51H270.867V48.792Z" fill="black"/>
<path d="M293.322 51.576C291.018 51.576 289.21 50.984 287.898 49.8C286.618 48.584 285.978 46.936 285.978 44.856C285.978 43.672 286.17 42.632 286.554 41.736C286.938 40.808 287.562 40.04 288.426 39.432C289.322 38.824 290.474 38.36 291.882 38.04C293.29 37.72 295.002 37.56 297.018 37.56H300.57V33.912C300.57 31.96 300.09 30.472 299.13 29.448C298.202 28.392 296.794 27.864 294.906 27.864C294.074 27.864 293.306 27.944 292.602 28.104C291.898 28.232 291.322 28.424 290.874 28.68V28.776C291.226 28.968 291.562 29.256 291.882 29.64C292.234 30.024 292.41 30.568 292.41 31.272C292.41 32.104 292.17 32.76 291.69 33.24C291.21 33.688 290.57 33.912 289.77 33.912C289.002 33.912 288.362 33.688 287.85 33.24C287.37 32.76 287.13 32.056 287.13 31.128C287.13 30.424 287.338 29.752 287.754 29.112C288.17 28.44 288.762 27.848 289.53 27.336C290.298 26.824 291.242 26.424 292.362 26.136C293.514 25.816 294.81 25.656 296.25 25.656C298.842 25.656 300.858 26.328 302.298 27.672C303.77 29.016 304.506 30.904 304.506 33.336V48.936H308.106V50.616C307.754 50.872 307.274 51.096 306.666 51.288C306.09 51.48 305.434 51.576 304.698 51.576C303.45 51.576 302.49 51.224 301.818 50.52C301.146 49.816 300.81 48.872 300.81 47.688V47.352H300.57C300.346 47.896 300.042 48.424 299.658 48.936C299.306 49.448 298.842 49.896 298.266 50.28C297.69 50.664 296.986 50.968 296.154 51.192C295.354 51.448 294.41 51.576 293.322 51.576ZM295.002 48.936C296.538 48.936 297.85 48.552 298.938 47.784C300.026 46.984 300.57 45.768 300.57 44.136V39.48H297.45C296.074 39.48 294.922 39.592 293.994 39.816C293.066 40.008 292.33 40.312 291.786 40.728C291.242 41.112 290.842 41.592 290.586 42.168C290.362 42.744 290.25 43.416 290.25 44.184V45.192C290.25 46.408 290.666 47.336 291.498 47.976C292.33 48.616 293.498 48.936 295.002 48.936Z" fill="black"/>
<path d="M325.488 51.576C323.504 51.576 321.904 51.16 320.688 50.328C319.472 49.496 318.592 48.488 318.048 47.304H317.856L315.648 51H314.064V18.216L310.512 17.592V15.912L318 14.52V29.976H318.192C318.736 28.792 319.6 27.784 320.784 26.952C321.968 26.088 323.536 25.656 325.488 25.656C328.56 25.656 331.008 26.776 332.832 29.016C334.688 31.224 335.616 34.424 335.616 38.616C335.616 42.808 334.688 46.024 332.832 48.264C331.008 50.472 328.56 51.576 325.488 51.576ZM324.336 48.84C326.544 48.84 328.256 48.104 329.472 46.632C330.72 45.128 331.344 43.128 331.344 40.632V36.6C331.344 34.104 330.72 32.12 329.472 30.648C328.256 29.144 326.544 28.392 324.336 28.392C323.568 28.392 322.8 28.504 322.032 28.728C321.264 28.952 320.576 29.272 319.968 29.688C319.392 30.104 318.912 30.632 318.528 31.272C318.176 31.88 318 32.568 318 33.336V43.896C318 44.664 318.176 45.368 318.528 46.008C318.912 46.616 319.392 47.128 319.968 47.544C320.576 47.96 321.264 48.28 322.032 48.504C322.8 48.728 323.568 48.84 324.336 48.84Z" fill="black"/>
<path d="M352.005 49.224C353.189 49.224 354.213 49.032 355.077 48.648C355.973 48.232 356.693 47.672 357.237 46.968C357.813 46.232 358.229 45.384 358.485 44.424C358.773 43.432 358.917 42.36 358.917 41.208V36.024C358.917 34.872 358.773 33.816 358.485 32.856C358.229 31.864 357.813 31.016 357.237 30.312C356.693 29.576 355.973 29.016 355.077 28.632C354.213 28.216 353.189 28.008 352.005 28.008C350.789 28.008 349.749 28.216 348.885 28.632C348.021 29.016 347.301 29.576 346.725 30.312C346.181 31.016 345.765 31.864 345.477 32.856C345.221 33.816 345.093 34.872 345.093 36.024V41.208C345.093 42.36 345.221 43.432 345.477 44.424C345.765 45.384 346.181 46.232 346.725 46.968C347.301 47.672 348.021 48.232 348.885 48.648C349.749 49.032 350.789 49.224 352.005 49.224ZM352.005 51.576C350.309 51.576 348.757 51.272 347.349 50.664C345.941 50.056 344.741 49.192 343.749 48.072C342.757 46.92 341.989 45.56 341.445 43.992C340.901 42.392 340.629 40.6 340.629 38.616C340.629 36.664 340.901 34.888 341.445 33.288C341.989 31.688 342.757 30.328 343.749 29.208C344.741 28.056 345.941 27.176 347.349 26.568C348.757 25.96 350.309 25.656 352.005 25.656C353.701 25.656 355.253 25.96 356.661 26.568C358.069 27.176 359.269 28.056 360.261 29.208C361.253 30.328 362.021 31.688 362.565 33.288C363.109 34.888 363.381 36.664 363.381 38.616C363.381 40.6 363.109 42.392 362.565 43.992C362.021 45.56 361.253 46.92 360.261 48.072C359.269 49.192 358.069 50.056 356.661 50.664C355.253 51.272 353.701 51.576 352.005 51.576Z" fill="black"/>
<path d="M367.962 48.792H371.514V29.352L367.962 28.728V27.096L375.354 25.656V29.976H375.594C375.818 29.464 376.09 28.952 376.41 28.44C376.762 27.928 377.178 27.464 377.658 27.048C378.17 26.632 378.746 26.296 379.386 26.04C380.058 25.784 380.826 25.656 381.69 25.656C383.098 25.656 384.218 25.992 385.05 26.664C385.914 27.336 386.346 28.312 386.346 29.592C386.346 30.552 386.106 31.304 385.626 31.848C385.146 32.392 384.522 32.664 383.754 32.664C382.89 32.664 382.202 32.44 381.69 31.992C381.178 31.512 380.922 30.904 380.922 30.168C380.922 29.528 381.05 29.016 381.306 28.632C381.594 28.216 381.914 27.976 382.266 27.912V27.816C382.138 27.784 381.978 27.768 381.786 27.768C381.594 27.736 381.354 27.72 381.066 27.72C380.394 27.72 379.722 27.896 379.05 28.248C378.378 28.568 377.77 29 377.226 29.544C376.714 30.056 376.282 30.648 375.93 31.32C375.61 31.992 375.45 32.664 375.45 33.336V48.792H379.962V51H367.962V48.792Z" fill="black"/>
<path d="M396.588 51.576C394.284 51.576 392.476 50.984 391.164 49.8C389.884 48.584 389.244 46.936 389.244 44.856C389.244 43.672 389.436 42.632 389.82 41.736C390.204 40.808 390.828 40.04 391.692 39.432C392.588 38.824 393.74 38.36 395.148 38.04C396.556 37.72 398.268 37.56 400.284 37.56H403.836V33.912C403.836 31.96 403.356 30.472 402.396 29.448C401.468 28.392 400.06 27.864 398.172 27.864C397.34 27.864 396.572 27.944 395.868 28.104C395.164 28.232 394.588 28.424 394.14 28.68V28.776C394.492 28.968 394.828 29.256 395.148 29.64C395.5 30.024 395.676 30.568 395.676 31.272C395.676 32.104 395.436 32.76 394.956 33.24C394.476 33.688 393.836 33.912 393.036 33.912C392.268 33.912 391.628 33.688 391.116 33.24C390.636 32.76 390.396 32.056 390.396 31.128C390.396 30.424 390.604 29.752 391.02 29.112C391.436 28.44 392.028 27.848 392.796 27.336C393.564 26.824 394.508 26.424 395.628 26.136C396.78 25.816 398.076 25.656 399.516 25.656C402.108 25.656 404.124 26.328 405.564 27.672C407.036 29.016 407.772 30.904 407.772 33.336V48.936H411.372V50.616C411.02 50.872 410.54 51.096 409.932 51.288C409.356 51.48 408.7 51.576 407.964 51.576C406.716 51.576 405.756 51.224 405.084 50.52C404.412 49.816 404.076 48.872 404.076 47.688V47.352H403.836C403.612 47.896 403.308 48.424 402.924 48.936C402.572 49.448 402.108 49.896 401.532 50.28C400.956 50.664 400.252 50.968 399.42 51.192C398.62 51.448 397.676 51.576 396.588 51.576ZM398.268 48.936C399.804 48.936 401.116 48.552 402.204 47.784C403.292 46.984 403.836 45.768 403.836 44.136V39.48H400.716C399.34 39.48 398.188 39.592 397.26 39.816C396.332 40.008 395.596 40.312 395.052 40.728C394.508 41.112 394.108 41.592 393.852 42.168C393.628 42.744 393.516 43.416 393.516 44.184V45.192C393.516 46.408 393.932 47.336 394.764 47.976C395.596 48.616 396.764 48.936 398.268 48.936Z" fill="black"/>
<path d="M422.274 51.288C420.578 51.288 419.41 50.952 418.77 50.28C418.13 49.576 417.81 48.392 417.81 46.728V28.584H414.642V26.232H415.074C415.746 26.232 416.274 26.184 416.658 26.088C417.074 25.992 417.394 25.864 417.618 25.704C417.874 25.512 418.05 25.288 418.146 25.032C418.274 24.744 418.386 24.424 418.482 24.072L419.586 19.8H421.746V26.232H428.13V28.584H421.746V48.648H428.13V50.232C427.842 50.392 427.474 50.536 427.026 50.664C426.61 50.792 426.13 50.904 425.586 51C425.074 51.096 424.53 51.16 423.954 51.192C423.378 51.256 422.818 51.288 422.274 51.288Z" fill="black"/>
<path d="M437.42 20.52C436.588 20.52 435.948 20.28 435.5 19.8C435.084 19.288 434.876 18.68 434.876 17.976V17.736C434.876 17.032 435.084 16.44 435.5 15.96C435.948 15.448 436.588 15.192 437.42 15.192C438.252 15.192 438.892 15.448 439.34 15.96C439.788 16.44 440.012 17.032 440.012 17.736V17.976C440.012 18.68 439.788 19.288 439.34 19.8C438.892 20.28 438.252 20.52 437.42 20.52ZM431.9 48.792H435.452V29.352L431.9 28.728V27.096L439.388 25.656V48.792H442.94V51H431.9V48.792Z" fill="black"/>
<path d="M447.233 28.44H444.737V26.232H455.009V28.44H451.553L458.225 46.584H458.417L464.897 28.44H461.441V26.232H470.177V28.44H467.681L458.993 51H455.969L447.233 28.44Z" fill="black"/>
<path d="M483.204 51.576C481.444 51.576 479.86 51.272 478.452 50.664C477.076 50.024 475.908 49.144 474.948 48.024C473.988 46.904 473.252 45.544 472.74 43.944C472.228 42.344 471.972 40.568 471.972 38.616C471.972 36.696 472.244 34.952 472.788 33.384C473.364 31.784 474.132 30.408 475.092 29.256C476.084 28.104 477.252 27.224 478.596 26.616C479.94 25.976 481.412 25.656 483.012 25.656C484.644 25.656 486.1 25.944 487.38 26.52C488.66 27.096 489.732 27.912 490.596 28.968C491.492 29.992 492.18 31.224 492.66 32.664C493.14 34.104 493.38 35.672 493.38 37.368V38.472H476.34V39.72C476.34 42.44 477.012 44.584 478.356 46.152C479.732 47.72 481.556 48.504 483.828 48.504C485.812 48.504 487.38 48.104 488.532 47.304C489.716 46.472 490.644 45.4 491.316 44.088L492.9 45.096C492.58 45.928 492.132 46.744 491.556 47.544C491.012 48.312 490.34 49 489.54 49.608C488.74 50.184 487.812 50.648 486.756 51C485.7 51.384 484.516 51.576 483.204 51.576ZM476.34 36.264H489.252V35.784C489.252 34.664 489.124 33.624 488.868 32.664C488.644 31.704 488.276 30.872 487.764 30.168C487.252 29.464 486.596 28.92 485.796 28.536C485.028 28.12 484.1 27.912 483.012 27.912C481.924 27.912 480.964 28.104 480.132 28.488C479.3 28.872 478.596 29.416 478.02 30.12C477.476 30.824 477.06 31.656 476.772 32.616C476.484 33.544 476.34 34.568 476.34 35.688V36.264Z" fill="black"/>
<path d="M213.416 113.576C211.304 113.576 209.384 113.176 207.656 112.376C205.928 111.576 204.456 110.424 203.24 108.92C202.024 107.416 201.08 105.592 200.408 103.448C199.736 101.304 199.4 98.904 199.4 96.248C199.4 93.464 199.736 91 200.408 88.856C201.08 86.712 202.008 84.904 203.192 83.432C204.408 81.96 205.864 80.84 207.56 80.072C209.256 79.304 211.128 78.92 213.176 78.92C215.256 78.92 216.984 79.272 218.36 79.976C219.768 80.648 220.696 81.496 221.144 82.52H221.336V79.496H224.792V89.288H221.336V86.792C221.336 85.192 220.632 83.912 219.224 82.952C217.816 81.96 215.976 81.464 213.704 81.464C212.008 81.464 210.536 81.784 209.288 82.424C208.072 83.032 207.064 83.88 206.264 84.968C205.496 86.024 204.92 87.272 204.536 88.712C204.184 90.12 204.008 91.608 204.008 93.176V98.984C204.008 100.744 204.232 102.328 204.68 103.736C205.16 105.144 205.832 106.36 206.696 107.384C207.592 108.376 208.68 109.144 209.96 109.688C211.24 110.232 212.696 110.504 214.328 110.504C216.6 110.504 218.504 109.912 220.04 108.728C221.576 107.544 222.696 106.04 223.4 104.216L225.272 105.128C224.984 106.056 224.52 107.016 223.88 108.008C223.24 109 222.424 109.912 221.432 110.744C220.472 111.576 219.32 112.264 217.976 112.808C216.632 113.32 215.112 113.576 213.416 113.576Z" fill="black"/>
<path d="M241.239 111.224C242.423 111.224 243.447 111.032 244.311 110.648C245.207 110.232 245.927 109.672 246.471 108.968C247.047 108.232 247.463 107.384 247.719 106.424C248.007 105.432 248.151 104.36 248.151 103.208V98.024C248.151 96.872 248.007 95.816 247.719 94.856C247.463 93.864 247.047 93.016 246.471 92.312C245.927 91.576 245.207 91.016 244.311 90.632C243.447 90.216 242.423 90.008 241.239 90.008C240.023 90.008 238.983 90.216 238.119 90.632C237.255 91.016 236.535 91.576 235.959 92.312C235.415 93.016 234.999 93.864 234.711 94.856C234.455 95.816 234.327 96.872 234.327 98.024V103.208C234.327 104.36 234.455 105.432 234.711 106.424C234.999 107.384 235.415 108.232 235.959 108.968C236.535 109.672 237.255 110.232 238.119 110.648C238.983 111.032 240.023 111.224 241.239 111.224ZM241.239 113.576C239.543 113.576 237.991 113.272 236.583 112.664C235.175 112.056 233.975 111.192 232.983 110.072C231.991 108.92 231.223 107.56 230.679 105.992C230.135 104.392 229.863 102.6 229.863 100.616C229.863 98.664 230.135 96.888 230.679 95.288C231.223 93.688 231.991 92.328 232.983 91.208C233.975 90.056 235.175 89.176 236.583 88.568C237.991 87.96 239.543 87.656 241.239 87.656C242.935 87.656 244.487 87.96 245.895 88.568C247.303 89.176 248.503 90.056 249.495 91.208C250.487 92.328 251.255 93.688 251.799 95.288C252.343 96.888 252.615 98.664 252.615 100.616C252.615 102.6 252.343 104.392 251.799 105.992C251.255 107.56 250.487 108.92 249.495 110.072C248.503 111.192 247.303 112.056 245.895 112.664C244.487 113.272 242.935 113.576 241.239 113.576Z" fill="black"/>
<path d="M257.197 110.792H260.749V91.352L257.197 90.728V89.096L264.589 87.656V91.976H264.781C264.973 91.496 265.261 91 265.645 90.488C266.061 89.976 266.557 89.512 267.133 89.096C267.741 88.68 268.445 88.344 269.245 88.088C270.045 87.8 270.925 87.656 271.885 87.656C274.861 87.656 276.989 88.44 278.269 90.008C279.581 91.544 280.237 93.864 280.237 96.968V110.792H283.789V113H272.749V110.792H276.301V97.304C276.301 92.696 274.365 90.392 270.493 90.392C269.789 90.392 269.085 90.488 268.381 90.68C267.709 90.872 267.085 91.176 266.509 91.592C265.965 92.008 265.517 92.52 265.165 93.128C264.845 93.736 264.685 94.456 264.685 95.288V110.792H268.237V113H257.197V110.792Z" fill="black"/>
<path d="M297.549 113.576C296.045 113.576 294.733 113.272 293.613 112.664C292.493 112.024 291.757 111.32 291.405 110.552H291.213V113H288.333V105.56H291.213V106.568C291.213 107.944 291.645 109.064 292.509 109.928C293.373 110.792 294.797 111.224 296.781 111.224C298.605 111.224 300.013 110.904 301.005 110.264C302.029 109.592 302.541 108.536 302.541 107.096C302.541 104.856 301.181 103.432 298.461 102.824L295.581 102.2C293.213 101.688 291.421 100.824 290.205 99.608C289.021 98.392 288.429 96.728 288.429 94.616C288.429 92.44 289.181 90.744 290.685 89.528C292.189 88.28 294.205 87.656 296.733 87.656C298.269 87.656 299.517 87.896 300.477 88.376C301.469 88.856 302.125 89.48 302.445 90.248H302.637V88.232H305.517V95.672H302.637V93.848C302.637 91.288 300.845 90.008 297.261 90.008C295.629 90.008 294.349 90.328 293.421 90.968C292.525 91.576 292.077 92.552 292.077 93.896C292.077 95.016 292.445 95.96 293.181 96.728C293.917 97.464 294.925 97.976 296.205 98.264L298.893 98.84C301.357 99.352 303.197 100.2 304.413 101.384C305.661 102.568 306.285 104.216 306.285 106.328C306.285 107.352 306.077 108.312 305.661 109.208C305.277 110.072 304.701 110.84 303.933 111.512C303.197 112.152 302.285 112.648 301.197 113C300.141 113.384 298.925 113.576 297.549 113.576Z" fill="black"/>
<path d="M322.235 113.576C319.259 113.576 317.115 112.808 315.803 111.272C314.523 109.704 313.883 107.352 313.883 104.216V91.352L310.331 90.728V89.096L317.819 87.656V103.88C317.819 108.52 319.755 110.84 323.627 110.84C324.331 110.84 325.019 110.744 325.691 110.552C326.395 110.36 327.019 110.056 327.563 109.64C328.139 109.224 328.587 108.712 328.907 108.104C329.259 107.496 329.435 106.776 329.435 105.944V91.352L325.883 90.728V89.096L333.371 87.656V109.88L336.923 110.504V112.136L329.531 113.576V109.256H329.339C329.147 109.736 328.843 110.232 328.427 110.744C328.043 111.256 327.547 111.72 326.939 112.136C326.363 112.552 325.675 112.888 324.875 113.144C324.075 113.432 323.195 113.576 322.235 113.576Z" fill="black"/>
<path d="M340.289 110.792H343.841V80.216L340.289 79.592V77.912L347.777 76.52V110.792H351.329V113H340.289V110.792Z" fill="black"/>
<path d="M362.696 113.288C361 113.288 359.832 112.952 359.192 112.28C358.552 111.576 358.232 110.392 358.232 108.728V90.584H355.064V88.232H355.496C356.168 88.232 356.696 88.184 357.08 88.088C357.496 87.992 357.816 87.864 358.04 87.704C358.296 87.512 358.472 87.288 358.568 87.032C358.696 86.744 358.808 86.424 358.904 86.072L360.008 81.8H362.168V88.232H368.552V90.584H362.168V110.648H368.552V112.232C368.264 112.392 367.896 112.536 367.448 112.664C367.032 112.792 366.552 112.904 366.008 113C365.496 113.096 364.952 113.16 364.376 113.192C363.8 113.256 363.24 113.288 362.696 113.288Z" fill="black"/>
<path d="M377.842 82.52C377.01 82.52 376.37 82.28 375.922 81.8C375.506 81.288 375.298 80.68 375.298 79.976V79.736C375.298 79.032 375.506 78.44 375.922 77.96C376.37 77.448 377.01 77.192 377.842 77.192C378.674 77.192 379.314 77.448 379.762 77.96C380.21 78.44 380.434 79.032 380.434 79.736V79.976C380.434 80.68 380.21 81.288 379.762 81.8C379.314 82.28 378.674 82.52 377.842 82.52ZM372.322 110.792H375.874V91.352L372.322 90.728V89.096L379.81 87.656V110.792H383.362V113H372.322V110.792Z" fill="black"/>
<path d="M387.462 110.792H391.014V91.352L387.462 90.728V89.096L394.854 87.656V91.976H395.046C395.238 91.496 395.526 91 395.91 90.488C396.326 89.976 396.822 89.512 397.398 89.096C398.006 88.68 398.71 88.344 399.51 88.088C400.31 87.8 401.19 87.656 402.15 87.656C405.126 87.656 407.254 88.44 408.534 90.008C409.846 91.544 410.502 93.864 410.502 96.968V110.792H414.054V113H403.014V110.792H406.566V97.304C406.566 92.696 404.63 90.392 400.758 90.392C400.054 90.392 399.35 90.488 398.646 90.68C397.974 90.872 397.35 91.176 396.774 91.592C396.23 92.008 395.782 92.52 395.43 93.128C395.11 93.736 394.95 94.456 394.95 95.288V110.792H398.502V113H387.462V110.792Z" fill="black"/>
<path d="M428.295 123.176C426.375 123.176 424.743 123.032 423.399 122.744C422.055 122.456 420.967 122.056 420.135 121.544C419.303 121.032 418.695 120.408 418.311 119.672C417.959 118.936 417.783 118.12 417.783 117.224C417.783 116.584 417.927 115.992 418.215 115.448C418.503 114.904 418.887 114.424 419.367 114.008C419.847 113.592 420.391 113.24 420.999 112.952C421.607 112.632 422.231 112.392 422.871 112.232V112.04C420.855 111.336 419.847 109.976 419.847 107.96C419.847 106.68 420.247 105.672 421.047 104.936C421.879 104.2 422.839 103.688 423.927 103.4V103.16C422.423 102.52 421.223 101.576 420.327 100.328C419.463 99.08 419.031 97.576 419.031 95.816C419.031 94.568 419.255 93.448 419.703 92.456C420.183 91.432 420.839 90.568 421.671 89.864C422.535 89.16 423.543 88.616 424.695 88.232C425.847 87.848 427.111 87.656 428.487 87.656C429.991 87.656 431.271 87.864 432.327 88.28C433.415 88.664 434.327 89.144 435.063 89.72C435.095 87.864 435.447 86.6 436.119 85.928C436.823 85.256 437.639 84.92 438.567 84.92C439.271 84.92 439.847 85.128 440.295 85.544C440.775 85.96 441.015 86.52 441.015 87.224C441.015 87.896 440.791 88.456 440.343 88.904C439.927 89.32 439.335 89.528 438.567 89.528C437.671 89.528 436.983 89.208 436.503 88.568H436.359V90.968C436.711 91.448 437.079 92.072 437.463 92.84C437.847 93.608 438.039 94.6 438.039 95.816C438.039 97.064 437.799 98.2 437.319 99.224C436.839 100.248 436.167 101.112 435.303 101.816C434.471 102.52 433.463 103.064 432.279 103.448C431.127 103.832 429.863 104.024 428.487 104.024C427.591 104.024 426.743 103.928 425.943 103.736C425.111 103.896 424.359 104.248 423.687 104.792C423.015 105.304 422.679 105.928 422.679 106.664C422.679 107.464 422.983 108.024 423.591 108.344C424.199 108.664 425.223 108.824 426.663 108.824H432.327C435.143 108.824 437.223 109.4 438.567 110.552C439.943 111.672 440.631 113.288 440.631 115.4C440.631 117.768 439.591 119.656 437.511 121.064C435.431 122.472 432.359 123.176 428.295 123.176ZM428.535 101.96C430.295 101.96 431.607 101.496 432.471 100.568C433.367 99.64 433.815 98.376 433.815 96.776V94.904C433.815 93.304 433.367 92.04 432.471 91.112C431.607 90.184 430.295 89.72 428.535 89.72C426.775 89.72 425.447 90.184 424.551 91.112C423.687 92.04 423.255 93.304 423.255 94.904V96.776C423.255 98.376 423.687 99.64 424.551 100.568C425.447 101.496 426.775 101.96 428.535 101.96ZM421.287 116.984C421.287 118.264 421.831 119.224 422.919 119.864C424.039 120.504 425.527 120.824 427.383 120.824H429.639C432.039 120.824 433.911 120.424 435.255 119.624C436.631 118.824 437.319 117.752 437.319 116.408C437.319 115.192 436.903 114.264 436.071 113.624C435.239 113.016 433.783 112.712 431.703 112.712H424.215C423.191 113.16 422.439 113.752 421.959 114.488C421.511 115.224 421.287 116.056 421.287 116.984Z" fill="black"/>
</svg>
