<svg width="31" height="33" viewBox="0 0 31 33" fill="none" xmlns="http://www.w3.org/2000/svg">
<path fill-rule="evenodd" clip-rule="evenodd" d="M15.0992 0.0174493C17.8835 -0.114078 21.1782 0.478995 21.7919 2.44367C22.798 5.66383 17.6988 10.3592 13.2553 12.6639C12.1663 13.229 11.506 13.3841 11.2311 13.3455C10.9683 13.3077 10.9279 13.0473 11.0131 12.8668C11.1716 12.5285 11.8877 11.8383 12.8473 11.0887C17.8491 7.18192 19.4754 4.316 18.5311 3.15418C17.9254 2.41055 15.3897 1.8936 12.7568 1.8936C12.0419 1.8936 10.1636 2.0595 9.9708 1.39775C9.8135 0.8555 12.3348 0.148108 15.0992 0.0174493Z" fill="black"/>
<path fill-rule="evenodd" clip-rule="evenodd" d="M9.20933 14.7821C11.5967 14.6426 14.4968 15.0594 16.1257 16.3058C16.9355 16.9247 17.5051 18.0644 17.1753 19.3707C16.2352 23.0785 12.7261 27.5639 4.92891 31.0108C2.44961 32.1069 0.50013 32.5263 0.0908988 32.2323C-0.348921 31.9159 0.92976 29.4695 1.31455 28.6572C2.55948 26.0273 4.11449 23.4664 5.63048 21.1221C6.18913 20.2592 7.05084 18.763 7.83151 18.8827C8.53026 18.99 7.7118 20.5803 7.17336 21.5916C6.26876 23.2883 3.77716 28.0022 4.59914 28.2836C6.41625 28.907 14.9417 22.421 13.6847 18.8088C13.102 17.1323 9.40023 16.9726 7.06895 16.9726C6.0086 16.9726 3.6926 17.2232 3.56445 16.4113C3.42611 15.662 7.08301 14.9078 9.20933 14.7821Z" fill="black"/>
<path fill-rule="evenodd" clip-rule="evenodd" d="M27.6482 10.8102C29.0812 11.0691 30.2492 11.2694 30.5175 11.8744C30.8185 12.56 29.2579 12.6015 28.4714 12.6177C24.7015 12.6906 22.4284 12.7647 22.3147 14.0457C22.1667 15.6947 23.9257 17.3546 25.6626 19.6824C27.2495 21.8071 29.0535 23.9034 28.5334 25.859C27.8854 28.2944 24.8994 28.8097 22.0565 28.8101C19.3331 28.8126 16.7531 28.3757 15.6695 28.1604C14.3195 27.8939 14.52 27.2269 14.8803 27.0124C15.2815 26.7728 17.577 26.7671 19.1722 26.6722C20.4849 26.5948 24.2974 26.597 24.8916 25.6203C25.6207 24.425 23.8359 22.3785 22.1973 20.2355C20.1524 17.5614 17.9064 14.801 19.0949 12.7849C20.6332 10.1764 25.1331 10.3553 27.6482 10.8102Z" fill="black"/>
</svg>
