<svg width="100%" height="100%" viewBox="0 0 305 172" fill="none" xmlns="http://www.w3.org/2000/svg">
<path fill-rule="evenodd" clip-rule="evenodd" d="M58.3061 4.41591L55.5001 6.83191L55.5031 22.6659C55.5061 41.1699 56.2681 44.1489 62.4601 49.8569C74.8571 61.2829 95.6001 55.8989 99.9841 40.1179C101.604 34.2849 101.278 9.43791 99.5371 6.07191C97.0251 1.21491 90.5011 0.407908 86.4551 4.45491C84.1011 6.80791 84.0001 7.44091 84.0001 19.8889C84.0001 27.0289 83.5761 33.9859 83.0571 35.3489C81.8061 38.6409 78.5471 39.5879 75.4511 37.5599C73.0421 35.9809 73.0001 35.7119 73.0001 21.8999V7.84591L70.0771 4.92291C66.4111 1.25691 62.1851 1.07491 58.3061 4.41591ZM109.635 4.07291L107 6.14491V28.3499C107 52.8549 107.312 54.2509 113.067 55.5149C117.034 56.3859 121.437 54.5309 122.87 51.3849C123.492 50.0219 124 45.0739 124 40.3909V31.8769L130.206 40.1129C139.776 52.8129 143.129 55.9999 146.922 55.9999C149.174 55.9999 151.057 55.0969 153.132 53.0219L156.111 50.0429L155.805 28.4329L155.5 6.82291L152.694 4.41191C149.108 1.32991 144.891 1.32991 141.306 4.41191C138.654 6.69191 138.481 7.34891 138.155 16.3559L137.811 25.8879L130.424 15.9619C126.361 10.5029 122.128 5.12791 121.018 4.01791C118.371 1.37091 113.036 1.39691 109.635 4.07291ZM164.306 4.41191L161.5 6.82291L161.168 25.5699C160.986 35.8799 161.128 45.8709 161.485 47.7699C162.977 55.7249 170.641 58.5129 176.077 53.0769C178.572 50.5819 179.002 49.3729 179.011 44.8269L179.022 39.4999L181.707 42.9999C183.184 44.9249 186.548 48.6949 189.181 51.3779C193.491 55.7679 194.297 56.1929 197.235 55.6289C199.031 55.2839 201.561 53.7949 202.857 52.3199C206.614 48.0469 205.424 43.4169 198.602 35.7699C195.526 32.3219 193.007 29.1289 193.004 28.6759C193.002 28.2229 195.475 24.9349 198.5 21.3689C203.094 15.9539 204 14.2509 204 11.0319C204 7.95591 203.379 6.65491 200.923 4.58891C195.313 -0.132092 191.783 1.55291 182.257 13.4999L179.067 17.4999L179.034 13.2969C178.991 7.92291 177.42 4.51191 174.343 3.10991C170.538 1.37691 167.357 1.78891 164.306 4.41191ZM213.306 4.41291L210.5 6.82691V28.9999V51.1729L213.306 53.5869C216.892 56.6709 221.108 56.6709 224.694 53.5869L227.5 51.1739V29.0009V6.82791L224.694 4.41391C221.108 1.32891 216.892 1.32791 213.306 4.41291ZM236.306 4.41091L233.5 6.82191L233.178 24.6609C233.001 34.4729 233.15 44.4689 233.508 46.8759C234.757 55.2549 241.843 58.6199 247.675 53.6029C250.25 51.3889 250.502 50.5129 250.981 42.1279L251.5 33.0499L258.916 42.5829C262.995 47.8269 267.444 52.9899 268.801 54.0579C272.213 56.7419 276.557 56.5339 279.545 53.5449L282 51.0909V28.9999V6.90891L279.545 4.45491C277.132 2.04091 273.024 1.28591 269.554 2.61791C266.668 3.72491 265.508 7.34091 265 16.8259L264.5 26.1519L257.131 16.0549C253.079 10.5019 248.63 5.06791 247.246 3.97891C243.866 1.31991 239.712 1.48391 236.306 4.41091ZM289.924 4.58091C287.829 6.81191 287.508 8.09491 287.556 14.0379C287.621 22.1529 289.425 24.9999 294.5 24.9999C298.605 24.9999 300.421 22.8849 302.502 15.6789C303.891 10.8699 303.97 9.34091 302.955 6.88991C300.67 1.37391 294.04 0.199908 289.924 4.58091ZM7.45108 4.07691C3.20308 6.25191 2.85408 8.20191 2.93108 29.3499L3.00408 49.4999L6.13408 52.3539C9.24308 55.1889 9.33608 55.2049 20.3821 54.8499C30.0821 54.5369 32.2211 54.1379 37.1501 51.7209C55.5161 42.7149 55.8671 16.4039 37.7541 6.42891C32.9311 3.77291 31.5571 3.51491 21.0001 3.28191C14.4091 3.13691 8.62508 3.47591 7.45108 4.07691ZM20.0001 28.9999V37.9999H24.0771C29.3291 37.9999 34.0001 33.7639 34.0001 28.9999C34.0001 24.2359 29.3291 19.9999 24.0771 19.9999H20.0001V28.9999ZM109.288 62.7499C106.34 66.0169 91.0001 101.862 91.0001 105.485C91.0001 108.468 93.9491 111.698 97.4821 112.585C100.599 113.367 104.367 111.086 106.187 107.315C107.17 105.277 108.191 104.619 110.25 104.697C111.763 104.753 115.238 104.845 117.974 104.9C122.434 104.99 123.108 105.307 124.485 107.97C125.329 109.604 126.958 111.442 128.103 112.055C132.391 114.35 139 110.303 139 105.383C139 101.033 123.075 64.2039 120.224 61.9609C116.613 59.1209 112.281 59.4329 109.288 62.7499ZM145.563 62.2499L143.015 64.4999L142.858 85.5359C142.747 100.358 143.058 107.24 143.911 108.834C146.487 113.648 154.667 113.964 157.68 109.366C158.866 107.555 159.275 104.607 159.229 98.2029C159.168 89.9159 159.245 89.5999 160.833 91.5869C161.75 92.7349 165.555 97.5909 169.288 102.377C177.923 113.446 182.641 115.359 188.025 109.975C189.869 108.131 190 106.574 190 86.4999C190 66.4259 189.869 64.8689 188.025 63.0249C183.657 58.6569 177.014 59.6259 174.279 65.0299C173.58 66.4129 173.023 71.1929 173.015 75.8899L173 84.2789L170.696 80.8899C164.476 71.7389 156.755 61.9389 155.044 61.0229C151.949 59.3669 148.292 59.8399 145.563 62.2499ZM256.684 61.4489C249.702 63.9389 246 68.9809 246 75.9999C246 83.4389 249.824 88.0029 259.058 91.5859C264.132 93.5549 267.2 95.8679 266.417 97.1339C265.288 98.9609 261.253 97.8739 258.5 94.9999C253.193 89.4609 244.6 92.0489 244.6 99.1859C244.6 106.975 252.909 112.523 264.5 112.475C275.655 112.429 283.172 105.921 283.289 96.2089C283.393 87.6139 280.2 84.1009 267.711 79.0689C262.141 76.8239 260.799 74.8619 264.361 74.1709C265.294 73.9899 267.634 75.2279 269.563 76.9209C273.513 80.3889 274.888 80.6259 278.928 78.5369C284.16 75.8319 284.489 70.2889 279.703 65.5029C274.453 60.2529 264.802 58.5529 256.684 61.4489ZM7.36408 62.1699C3.56008 64.0119 3.00008 67.1949 3.00008 86.9909C3.00008 105.535 3.04508 105.941 5.41708 108.694C7.82208 111.486 7.89408 111.5 20.1671 111.5C31.1321 111.5 32.8881 111.257 36.0001 109.307C37.9251 108.101 40.1351 106.079 40.9101 104.814C44.7251 98.5919 44.0191 89.7329 39.4191 86.1149C36.9251 84.1529 36.9121 84.0709 38.5791 80.8469C40.7521 76.6439 40.7431 70.7839 38.5581 67.4489C35.6061 62.9429 29.7461 61.0379 19.0001 61.0899C13.7751 61.1149 8.53908 61.6009 7.36408 62.1699ZM51.3641 62.1259C47.5411 64.0549 47.0001 67.1899 47.0001 87.4119C47.0001 105.165 47.1611 106.935 48.9841 109.253C51.4431 112.378 55.4491 113.471 59.0241 111.99C62.4361 110.577 64.0001 107.211 64.0001 101.282V96.6579L69.4181 103.631C77.1121 113.532 81.0841 115.07 86.0771 110.077C90.1901 105.964 89.9891 102.101 85.3981 97.0189L81.7961 93.0309L84.3981 89.9389C87.6531 86.0709 88.3571 83.3149 87.8011 76.6119C87.2731 70.2459 84.5251 65.9829 79.2701 63.3789C74.8441 61.1849 54.9941 60.2939 51.3641 62.1259ZM199.047 63.7989L196 66.8459V86.3669C196 105.539 196.043 105.939 198.403 108.682C200.594 111.229 201.51 111.508 208.765 111.838C219.085 112.306 226.827 110.639 232.703 106.681C247.938 96.4199 245.964 71.9439 229.256 63.9509C225.459 62.1339 222.241 61.5819 213.297 61.2129L202.094 60.7519L199.047 63.7989ZM20.0001 76.9999C20.0001 80.2849 21.4821 80.8299 24.4711 78.6449C26.9621 76.8229 25.7831 73.9999 22.5311 73.9999C20.3851 73.9999 20.0001 74.4569 20.0001 76.9999ZM64.0001 78.9999C64.0001 83.3859 64.2541 83.9999 66.0661 83.9999C69.6781 83.9999 72.0001 82.1079 72.0001 79.1649C72.0001 75.6449 70.3441 73.9999 66.8001 73.9999C64.1071 73.9999 64.0001 74.1899 64.0001 78.9999ZM213.526 77.8069C213.237 78.0969 213 82.0829 213 86.6669V94.9999H217.045C228.516 94.9999 229.198 78.8149 217.776 77.6579C215.728 77.4509 213.815 77.5179 213.526 77.8069ZM113.613 86.4069C113.28 87.7309 112.733 89.5309 112.397 90.4069C111.919 91.6539 112.462 91.9999 114.893 91.9999C118.405 91.9999 118.451 91.8889 116.799 87.3209C115.376 83.3859 114.438 83.1169 113.613 86.4069ZM20.0001 94.5659C20.0001 97.8369 20.2201 98.1069 22.6491 97.8159C28.1951 97.1539 27.9501 90.9999 22.3781 90.9999C20.3191 90.9999 20.0001 91.4779 20.0001 94.5659ZM286.998 101.002C284.204 103.796 284.73 107.73 288.248 110.345C291.735 112.937 295.869 111.761 297.857 107.612C299.071 105.08 299.006 104.483 297.261 102.135C294.668 98.6459 289.883 98.1169 286.998 101.002ZM287.82 103.496C286.88 105.558 286.998 106.34 288.496 107.996C291.603 111.429 296 109.966 296 105.5C296 100.695 289.789 99.1739 287.82 103.496ZM289 104.941C289 106.559 289.45 108.16 290 108.5C290.55 108.84 291 108.586 291 107.937C291 107.046 291.339 107.037 292.379 107.9C293.474 108.809 293.849 108.569 294.2 106.734C294.859 103.286 294.103 102 291.417 102C289.409 102 289 102.498 289 104.941ZM194 138.078C193.175 138.526 190.809 139.163 188.743 139.493C185.498 140.011 185.055 140.394 185.497 142.297C186.585 146.983 191 167.993 191 168.483C191 168.767 191.902 169 193.004 169C194.937 169 194.992 168.488 194.57 154.25C194.329 146.137 194.358 140.738 194.633 142.25C194.966 144.08 195.752 145 196.985 145C202.615 145 203.822 149.056 199.006 151.797C195.694 153.682 194.93 157 197.809 157C203.739 157 204.749 164.5 198.973 165.655C195.365 166.377 194.967 169 198.466 169C207.17 169 213.332 159.766 207.625 155.277C205.283 153.434 205.276 153.378 207.125 151.094C208.156 149.82 209 147.669 209 146.312C209 143.217 203.942 138.026 200.827 137.923C199.547 137.881 197.825 137.716 197 137.555C196.175 137.395 194.825 137.63 194 138.078ZM212.667 137.667C212.3 138.033 212 145.265 212 153.736C212 169.138 212 169.139 214.25 168.82C216.218 168.54 216.538 167.827 216.807 163.122L217.113 157.744L220.673 163.434C223.089 167.297 224.703 168.944 225.698 168.562C226.504 168.253 227.345 168 227.567 168C227.789 168 227.094 165.775 226.022 163.056C224.095 158.167 224.095 158.105 226.01 157.497C229.196 156.486 232 152.058 232 148.039C232 142.977 229.042 140.502 220.688 138.573C212.753 136.741 213.507 136.826 212.667 137.667ZM219.15 142.103C219.067 143.535 218.738 147.585 218.418 151.103C218.098 154.621 218.21 157.017 218.668 156.427C219.126 155.837 220.258 155.075 221.185 154.734C222.111 154.392 223.367 153.183 223.975 152.046C224.897 150.324 224.673 149.601 222.628 147.706C221.279 146.456 219.978 144.098 219.737 142.466C219.329 139.698 219.29 139.674 219.15 142.103ZM85.2001 142.2C83.8061 143.594 83.5281 163.708 84.8741 165.83C85.3531 166.586 86.9661 167.018 88.6091 166.83C91.2941 166.524 91.5221 166.161 91.8051 161.75C91.9721 159.137 92.4221 157.026 92.8051 157.057C93.1871 157.088 95.1941 159.338 97.2651 162.057C101.114 167.11 104.256 168.344 106.8 165.8C108.305 164.295 108.439 145.689 106.965 142.934C104.487 138.304 99.0001 141.907 99.0001 148.163V152.183L94.4451 146.592C89.9251 141.042 87.5061 139.894 85.2001 142.2ZM112.089 142.393C111.323 143.315 111.028 147.626 111.216 155.143L111.5 166.5H115C118.238 166.5 118.537 166.238 119 163L119.5 159.5L122.369 163.25C125.319 167.107 128.524 168.076 130.8 165.8C132.837 163.763 132.14 160.739 128.852 157.348L125.705 154.1L128.852 150.515C132.387 146.49 132.711 144.854 130.429 142.571C128.021 140.164 126.211 140.659 122.454 144.75C119.074 148.429 119.009 148.452 119.005 145.95C118.996 141.524 114.661 139.294 112.089 142.393ZM136 141.978C134.886 142.681 134.415 145.314 134.17 152.213C133.782 163.141 134.874 167 138.353 167C141.522 167 142.781 165.316 143.175 160.549L143.5 156.624L147 161.311C150.481 165.973 153.63 167.74 156.498 166.639C157.719 166.171 158 163.814 158 154.05C158 142.055 157.997 142.037 155.487 141.407C151.896 140.506 150.149 142.46 149.802 147.764L149.5 152.369L145.218 146.685C141.019 141.111 139.003 140.082 136 141.978ZM162.2 142.2C160.563 143.837 160.682 150.491 162.373 151.895C164.56 153.709 166.887 152.108 168.14 147.928C169.047 144.898 169.023 143.733 168.026 142.532C166.504 140.697 163.854 140.546 162.2 142.2ZM59.2001 143.2C57.2831 145.117 57.5901 163.447 59.5711 165.429C61.5811 167.438 69.8421 167.511 74.5101 165.56C78.4811 163.901 81.9911 158.787 81.9961 154.651C82.0021 150.428 79.1131 145.11 75.9151 143.456C72.4881 141.684 60.8931 141.507 59.2001 143.2ZM67.0001 154.434C67.0001 159.286 68.1041 160.107 71.3951 157.701C72.5771 156.836 73.0591 155.414 72.8361 153.451C72.5661 151.077 71.9621 150.438 69.7501 150.184C67.1051 149.879 67.0001 150.042 67.0001 154.434ZM160.75 161.625C161.438 161.923 162 163.029 162 164.083C162 165.137 162.45 166 163 166C163.55 166 164 165.352 164 164.559C164 163.766 164.521 162.796 165.158 162.403C165.951 161.913 166.138 162.366 165.751 163.843C165.441 165.028 165.596 166.25 166.094 166.558C166.592 166.866 167.007 166.529 167.015 165.809C167.025 165.01 167.317 164.889 167.765 165.5C168.169 166.05 169.313 166.567 170.307 166.648C171.699 166.763 172.043 166.189 171.807 164.148C171.516 161.64 171.184 161.489 165.5 161.291C162.2 161.176 160.063 161.326 160.75 161.625ZM229.224 164.176C228.365 165.035 228.344 165.71 229.146 166.676C230.636 168.471 232.654 168.344 233.396 166.41C234.574 163.341 231.634 161.766 229.224 164.176Z" fill="black"/>
<path fill-rule="evenodd" clip-rule="evenodd" d="M292.894 3.19503C291.461 3.67603 289.774 5.20103 289.144 6.58203C287.66 9.84003 287.675 18.193 289.171 21.477C290.382 24.135 293.876 25.645 296.492 24.641C298.837 23.742 301.877 18.003 302.615 13.083C303.752 5.49703 299.356 1.02403 292.894 3.19503ZM109.599 62.891C107.862 64.81 102.058 77.568 94.885 95.234C91.143 104.45 91.012 105.123 92.429 107.863C94.037 110.972 95.796 112 99.509 112C101.928 112 106 107.837 106 105.365C106 104.314 108.012 104.005 114.75 104.022L123.5 104.043L125 107.27C126.948 111.46 131.103 113.014 134.805 110.936C139.772 108.148 139.728 105.567 134.51 93.463C131.91 87.433 128.225 78.675 126.32 74C124.415 69.325 121.911 64.487 120.754 63.25C118.06 60.367 112.057 60.174 109.599 62.891ZM145.514 62.629C144.618 63.525 144.131 64.898 144.431 65.681C144.75 66.511 144.542 66.835 143.932 66.458C143.213 66.014 142.982 72.44 143.193 86.996C143.496 107.88 143.533 108.207 145.861 110.09C148.874 112.528 153.124 112.53 156.131 110.095C158.233 108.393 158.538 107.147 158.992 98.414L159.5 88.638L165.38 96.459C175.162 109.473 177.784 112 181.506 112C183.306 112 185.841 111.14 187.139 110.089C189.484 108.191 189.5 108.035 189.5 87.297C189.5 68.992 189.281 66.082 187.727 63.708C186.316 61.553 185.181 61 182.168 61C175.401 61 174.567 62.394 174 74.643L173.5 85.454L169.722 80.186C167.472 77.048 165.488 75.198 164.817 75.613C164.14 76.032 163.968 75.86 164.387 75.183C165.304 73.699 162.084 68.83 160.736 69.663C160.161 70.018 159.964 69.866 160.299 69.326C160.633 68.785 159.545 66.69 157.88 64.671C155.35 61.601 154.223 61 150.999 61C148.769 61 146.456 61.687 145.514 62.629ZM256 62.121C249.049 64.884 245.044 72.734 246.957 79.841C248.271 84.721 250.424 86.664 259.319 91C264.667 93.606 266.5 95.011 266.5 96.5C266.5 98.131 265.822 98.506 262.822 98.534C260.799 98.552 259.165 98.327 259.191 98.034C259.374 95.915 258.607 94.848 255.892 93.444C252.074 91.47 248.56 92.216 246.44 95.451C244.658 98.171 244.85 103.628 246.714 103.262C247.382 103.131 247.703 103.609 247.429 104.325C246.142 107.679 255.334 111.9 264 111.934C273.706 111.973 281.171 106.938 282.585 99.399C284.219 90.688 279.562 83.895 269.684 80.582C263.445 78.489 261.461 76.846 262.357 74.513C263.245 72.198 265.584 72.696 269.347 76C273.21 79.391 276.767 79.822 279.666 77.25C284.559 72.909 282.811 66.539 275.795 63.143C270.977 60.811 260.638 60.277 256 62.121ZM6.00002 64C4.13002 65.87 4.00002 67.333 4.00002 86.5C4.00002 112.783 2.98902 111.337 21.026 110.848C32.092 110.548 34.244 110.215 36.678 108.429C43.792 103.208 45.052 92.116 39.132 86.827L36.008 84.035L38 80.768C41.66 74.765 40.14 68.359 34.088 64.28C31.059 62.239 29.513 62 19.352 62C9.33302 62 7.76502 62.235 6.00002 64ZM50 64C48.127 65.873 48 67.333 48 87C48 106.667 48.127 108.127 50 110C54.301 114.301 62.829 111.193 63.142 105.211C63.299 102.195 63.555 99.264 63.859 97C64.022 95.79 64.26 95.842 65.092 97.271C65.659 98.245 66.615 98.738 67.216 98.367C67.849 97.975 68.025 98.151 67.634 98.783C66.708 100.281 75.298 110.533 77.336 110.363C78.24 110.288 78.732 110.625 78.43 111.113C77.642 112.389 81.74 112.206 84.316 110.85C87.314 109.272 87.967 108.061 87.985 104.042C87.996 101.398 87.137 99.7 84.33 96.826L80.66 93.067L83.317 90.41C86.037 87.69 88.002 82.453 87.972 78C87.932 71.804 81.039 62.622 77.889 64.568C77.174 65.011 76.952 64.886 77.34 64.259C78.427 62.501 75.341 62 63.418 62C53.333 62 51.766 62.234 50 64ZM198.924 64.582C196.53 67.133 196.5 67.403 196.5 86.67V106.175L199.306 108.587C201.857 110.781 202.997 111 211.878 111C218.015 111 223.31 110.432 226.128 109.472C236.269 106.017 242.262 97.535 242.235 86.676C242.215 78.575 239.805 72.878 234.377 68.1C228.919 63.296 224.002 62 211.231 62C201.898 62 201.214 62.144 198.924 64.582ZM19.667 73.667C19.3 74.033 19 75.637 19 77.23C19 79.896 19.259 80.102 22.25 79.813C24.803 79.567 25.572 78.988 25.837 77.113C26.289 73.919 21.878 71.456 19.667 73.667ZM63.463 74.25C62.773 76.069 63.443 84.031 64.285 84.014C64.678 84.006 66.093 84 67.429 84C72.547 84 74.665 78.665 71 75C68.773 72.773 64.196 72.317 63.463 74.25ZM212 86.5V96H215.55C222.989 96 227.951 90.606 226.517 84.078C225.56 79.722 221.657 77 216.365 77H212V86.5ZM113.2 85.75C111.005 92.136 111.112 92.519 115 92.145C116.925 91.96 118.591 91.723 118.703 91.618C119.082 91.262 115.519 82 115.003 82C114.72 82 113.909 83.688 113.2 85.75ZM19.667 90.667C18.454 91.879 18.97 98.051 20.328 98.572C21.058 98.852 22.858 98.624 24.328 98.066C28.882 96.334 27.421 90 22.467 90C21.293 90 20.033 90.3 19.667 90.667ZM288.223 100.557C285.3 102.604 285.12 108.459 287.934 109.965C294.897 113.691 301.437 106.28 295.811 101.039C293.189 98.596 291.202 98.47 288.223 100.557ZM288.571 101.571C287.707 102.436 287 104.181 287 105.449C287 110.779 294.677 111.749 296.461 106.645C297.32 104.191 297.131 103.525 295.119 101.895C292.27 99.589 290.635 99.508 288.571 101.571ZM290.079 105.25C290.122 107.037 290.391 107.919 290.676 107.208C291.029 106.329 291.576 106.233 292.388 106.907C293.247 107.62 293.628 107.289 293.745 105.73C293.896 103.726 292.547 102.052 290.75 102.015C290.337 102.007 290.036 103.463 290.079 105.25ZM291 104C291 104.55 291.477 105 292.059 105C292.641 105 292.84 104.55 292.5 104C292.16 103.45 291.684 103 291.441 103C291.198 103 291 103.45 291 104ZM195 140.665C195 143.098 195.543 143.746 198.25 144.543C200.982 145.347 201.5 145.978 201.5 148.5C201.5 150.652 200.864 151.779 199.25 152.487C196.224 153.815 196.414 155.61 199.75 157.209C201.842 158.212 202.5 159.242 202.5 161.513C202.5 163.927 201.828 164.835 199 166.248L195.5 167.997L198.8 167.998C203.218 168.001 208.334 165.313 207.593 163.38C207.271 162.544 207.454 162.163 208.011 162.507C208.579 162.858 209 161.845 209 160.132C209 158.158 208.174 156.495 206.565 155.23L204.13 153.314L206.19 151.254C210.833 146.612 207.068 139.646 199.25 138.414C195.067 137.755 195 137.791 195 140.665ZM213 151.418C213 158.798 212.75 165.489 212.443 166.287C212.103 167.174 212.632 167.932 213.804 168.239C215.834 168.769 215.661 169.666 218.639 143.25L219.23 138H216.115H213V151.418ZM188.75 139.716C187.238 139.945 185.994 140.665 185.986 141.316C185.978 141.967 187.174 148.238 188.643 155.25C190.461 163.926 191.744 168 192.657 168C193.698 168 193.998 165.585 193.989 157.25C193.978 146.234 193.218 138.884 192.119 139.15C191.779 139.232 190.262 139.487 188.75 139.716ZM220.72 139.613C219.666 140.667 219.84 146 220.929 146C222.521 146 225 149.054 225 151.015C225 152.045 223.65 153.684 222 154.659C220.35 155.634 219 157.243 219 158.235C219 160.853 223.766 168 225.513 168C227.393 168 227.379 167.151 225.418 162.458C223.954 158.955 223.963 158.6 225.531 157.723C232.4 153.878 234.146 145.081 228.734 141.58C225.863 139.724 221.645 138.688 220.72 139.613ZM161.926 142.684C161.885 143.133 161.659 144.54 161.423 145.81C160.897 148.644 162.566 152 164.5 152C166.465 152 168.188 148.462 167.812 145.201C167.568 143.093 166.896 142.43 164.75 142.184C163.238 142.01 161.967 142.235 161.926 142.684Z" fill="black"/>
</svg>
