<svg viewBox="0 0 321.7 224.8" xmlns="http://www.w3.org/2000/svg"><g fill="#000000"><path class="jjill-logo_svg__st0" d="M0 220.2c22.4-2.6 23.1-19.4 23.1-58 0-51.9-.9-85.5-1.8-101.1 3.1.6 6.3.9 9.5.9 3.3 0 6.5-.3 9.7-.9-.4 9-.7 17.2-.7 24.2 0 33.6.2 63.1.2 89 0 33-8.4 47.5-38.8 50.6L0 220.2zM108.4 220.2c22.4-2.6 23.1-19.4 23.1-58 0-51.9-.9-85.5-1.8-101.1 3.1.6 6.3.9 9.5.9 3.3 0 6.5-.2 9.7-.9-.4 9-.7 17.2-.7 24.2 0 33.6.2 63.1.2 89 0 33-8.4 47.5-38.8 50.6l-1.2-4.7zM190.9 110.3c0-16.7-.4-33.2-1.1-49.3 3 .6 6 .9 9 .9s6-.3 9-.9c-.7 16.3-1.1 32.6-1.1 49.3 0 18.3.4 36.6 1.1 54.6-2.9-.7-6-1.1-9-1.1s-6 .4-9 1.1c.7-18 1.1-36.3 1.1-54.6zM248.3 100.7V43.1c0-16.7 0-31-.9-43.1 2.9.2 5.9.4 8.8.4 3.1 0 6.4-.2 9.4-.4-1.1 20.2-1.1 42.9-1.1 67.7 0 45.7.2 78.1 1.1 97.2-3.1-.4-6.3-.7-9.4-.7-2.9 0-5.9.2-8.8.7.9-14.7.9-36 .9-64.2zM304.4 100.7V43.1c0-16.7 0-31-.9-43.1 2.9.2 5.9.4 8.8.4 3.1 0 6.4-.2 9.4-.4-1.1 20.2-1.1 42.9-1.1 67.7 0 45.7.2 78.1 1.1 97.2-3.1-.4-6.3-.7-9.4-.7-2.9 0-5.9.2-8.8.7.9-14.7.9-36 .9-64.2zM72 154c0-2.9-.4-5.8-1.1-8.6 3.1.1 6 .1 9 .1s6.2 0 9-.1c-.7 2.8-1.1 5.7-1.1 8.6 0 3.2.4 6.4 1.1 9.5-2.9-.1-6-.2-9-.2s-6 .1-9 .2c.7-3.1 1.1-6.3 1.1-9.5z"></path></g></svg>