<svg width="101" height="21" viewBox="0 0 101 21" fill="none" xmlns="http://www.w3.org/2000/svg">
<path d="M98.29 14.534V13.886H98.683C98.962 13.886 99.128 13.973 99.128 14.201C99.128 14.448 98.962 14.534 98.687 14.534H98.29ZM98.072 15.516H98.291V14.717H98.705L99.137 15.516H99.371L98.926 14.687C99.17 14.632 99.34 14.483 99.34 14.191C99.34 13.868 99.111 13.692 98.695 13.692H98.072V15.516ZM98.675 16.114C97.857 16.114 97.212 15.449 97.212 14.632C97.212 13.812 97.853 13.151 98.669 13.151C99.487 13.151 100.13 13.816 100.13 14.632C100.13 15.455 99.49 16.114 98.675 16.114ZM98.669 16.292C99.589 16.292 100.321 15.555 100.321 14.632C100.321 13.71 99.594 12.974 98.675 12.974C97.753 12.974 97.023 13.71 97.023 14.632C97.023 15.555 97.749 16.292 98.669 16.292Z" fill="black"/>
<path d="M88.525 2.047H88.554C88.724 2.226 89.77 3.377 90.798 4.397C91.778 5.368 92.986 6.604 93.579 7.17C93.683 7.273 93.796 7.377 93.899 7.377C93.983 7.377 94.021 7.292 94.021 7.085L94.125 1.131C94.133 0.603 94.209 0.404 94.473 0.329C94.586 0.301 94.662 0.301 94.756 0.301C94.869 0.301 94.926 0.273 94.926 0.217C94.926 0.142 94.832 0.132999 94.709 0.132999C94.248 0.132999 93.889 0.158999 93.785 0.158999C93.588 0.158999 93.135 0.132999 92.644 0.132999C92.503 0.132999 92.399 0.142 92.399 0.217C92.399 0.273 92.437 0.301 92.55 0.301C92.682 0.301 92.907 0.301 93.05 0.358C93.276 0.452 93.361 0.631 93.37 1.207L93.464 5.443H93.417C93.257 5.293 91.983 3.934 91.343 3.293C89.966 1.926 88.532 0.416 88.419 0.294C88.257 0.123 88.173 0.000999451 88.068 0.000999451C87.974 0.000999451 87.945 0.134 87.945 0.321L87.86 5.879C87.851 6.699 87.813 6.974 87.568 7.049C87.436 7.087 87.266 7.096 87.143 7.096C87.049 7.096 86.993 7.115 86.993 7.171C86.993 7.256 87.077 7.265 87.2 7.265C87.69 7.265 88.134 7.238 88.221 7.238C88.4 7.238 88.778 7.265 89.391 7.265C89.523 7.265 89.608 7.245 89.608 7.171C89.608 7.114 89.55 7.096 89.448 7.096C89.297 7.096 89.119 7.087 88.957 7.03C88.769 6.965 88.646 6.719 88.627 5.983L88.525 2.047ZM80.163 6.926C78.351 6.926 77.266 5.368 77.266 3.405C77.266 1.055 78.501 0.450999 79.587 0.450999C81.134 0.450999 82.353 1.763 82.353 3.878C82.353 6.605 80.823 6.926 80.163 6.926ZM79.767 7.396C82.163 7.396 83.671 5.689 83.671 3.528C83.671 1.367 82.21 0.000999451 79.86 0.000999451C77.03 0.000999451 75.964 2.086 75.964 3.698C75.964 5.368 77.059 7.396 79.767 7.396ZM69.22 4.528C69.22 5.396 69.22 6.141 69.171 6.538C69.144 6.811 69.087 7.019 68.899 7.058C68.814 7.076 68.701 7.095 68.559 7.095C68.446 7.095 68.408 7.122 68.408 7.17C68.408 7.235 68.474 7.264 68.597 7.264C68.974 7.264 69.568 7.237 69.785 7.237C70.049 7.237 70.643 7.264 71.266 7.264C71.37 7.264 71.445 7.236 71.445 7.17C71.445 7.122 71.398 7.095 71.295 7.095C71.153 7.095 70.945 7.075 70.814 7.058C70.531 7.02 70.474 6.812 70.446 6.548C70.399 6.142 70.399 5.397 70.399 4.528V0.658999L71.588 0.686999C72.428 0.705999 72.683 0.969999 72.701 1.215L72.711 1.319C72.721 1.462 72.738 1.508 72.815 1.508C72.872 1.508 72.89 1.45 72.899 1.357C72.899 1.113 72.926 0.462 72.926 0.264C72.926 0.121 72.918 0.066 72.852 0.066C72.815 0.066 72.739 0.0849999 72.598 0.113C72.457 0.133 72.248 0.16 71.947 0.16H68.212C67.9 0.16 67.542 0.141 67.269 0.113C67.033 0.0939999 66.938 0 66.863 0C66.806 0 66.778 0.0569993 66.75 0.179999C66.731 0.254999 66.553 1.113 66.553 1.264C66.553 1.367 66.571 1.414 66.637 1.414C66.694 1.414 66.721 1.377 66.741 1.301C66.761 1.226 66.807 1.113 66.902 0.971C67.044 0.764 67.27 0.716 67.817 0.697L69.223 0.66V4.528H69.22ZM62.878 5.595C62.878 5.122 62.878 4.744 62.888 4.462C62.897 4.132 62.992 3.971 63.245 3.924C63.359 3.904 63.425 3.896 63.501 3.896C63.566 3.896 63.624 3.877 63.624 3.821C63.624 3.746 63.558 3.727 63.435 3.727C63.124 3.727 62.624 3.754 62.331 3.754C62.048 3.754 61.454 3.727 60.964 3.727C60.831 3.727 60.766 3.746 60.766 3.821C60.766 3.878 60.823 3.896 60.907 3.896C61.041 3.896 61.2 3.905 61.276 3.924C61.588 3.989 61.672 4.141 61.681 4.462C61.691 4.744 61.691 5.104 61.691 5.575V6.463C61.691 6.622 61.653 6.745 61.511 6.812C61.284 6.916 60.954 6.916 60.708 6.916C58.718 6.916 57.425 5.397 57.425 3.369C57.425 2.208 57.765 1.501 58.292 1.057C58.954 0.509999 59.643 0.471999 60.161 0.471999C61.227 0.471999 61.982 0.906 62.265 1.207C62.51 1.472 62.557 1.773 62.584 1.991C62.594 2.066 62.612 2.113 62.678 2.113C62.754 2.113 62.783 2.066 62.783 1.915C62.783 0.735 62.848 0.472 62.848 0.367C62.848 0.303 62.829 0.264 62.716 0.256C62.499 0.245 62.169 0.189999 61.972 0.151999C61.783 0.113999 60.952 0.00199986 60.3 0.00199986C59.509 0.00199986 58.669 0.0669994 57.763 0.613999C56.905 1.134 56.122 2.19 56.122 3.7C56.122 6.304 58.169 7.397 60.48 7.397C61.215 7.397 62.14 7.294 62.752 6.974C62.865 6.908 62.875 6.889 62.875 6.634V5.595H62.878ZM46.286 2.047H46.315C46.485 2.226 47.531 3.377 48.559 4.397C49.54 5.368 50.747 6.604 51.341 7.17C51.444 7.273 51.557 7.377 51.661 7.377C51.745 7.377 51.782 7.292 51.782 7.085L51.886 1.131C51.896 0.603 51.972 0.404 52.236 0.329C52.349 0.301 52.425 0.301 52.519 0.301C52.632 0.301 52.689 0.273 52.689 0.217C52.689 0.142 52.595 0.132999 52.472 0.132999C52.009 0.132999 51.651 0.158999 51.548 0.158999C51.35 0.158999 50.898 0.132999 50.406 0.132999C50.265 0.132999 50.161 0.142 50.161 0.217C50.161 0.273 50.199 0.301 50.312 0.301C50.444 0.301 50.67 0.301 50.812 0.358C51.038 0.452 51.124 0.631 51.131 1.207L51.227 5.443H51.18C51.019 5.293 49.746 3.934 49.105 3.293C47.728 1.926 46.295 0.416 46.181 0.294C46.021 0.123 45.935 0.000999451 45.831 0.000999451C45.736 0.000999451 45.708 0.134 45.708 0.321L45.623 5.879C45.613 6.699 45.576 6.974 45.331 7.049C45.198 7.087 45.028 7.096 44.905 7.096C44.811 7.096 44.755 7.115 44.755 7.171C44.755 7.256 44.84 7.265 44.963 7.265C45.454 7.265 45.898 7.238 45.983 7.238C46.163 7.238 46.541 7.265 47.153 7.265C47.286 7.265 47.371 7.245 47.371 7.171C47.371 7.114 47.313 7.096 47.211 7.096C47.06 7.096 46.881 7.087 46.72 7.03C46.532 6.965 46.409 6.719 46.39 5.983L46.286 2.047ZM39.142 4.528C39.142 5.443 39.142 6.188 39.095 6.586C39.066 6.858 39.01 7.02 38.821 7.058C38.736 7.076 38.624 7.095 38.482 7.095C38.369 7.095 38.332 7.122 38.332 7.17C38.332 7.235 38.397 7.264 38.52 7.264C38.898 7.264 39.492 7.237 39.708 7.237C39.963 7.237 40.557 7.264 41.18 7.264C41.283 7.264 41.359 7.236 41.359 7.17C41.359 7.122 41.312 7.095 41.209 7.095C41.066 7.095 40.859 7.075 40.728 7.058C40.445 7.02 40.379 6.85 40.35 6.595C40.313 6.189 40.313 5.444 40.313 4.529V2.868C40.313 1.434 40.313 1.17 40.333 0.867C40.351 0.537 40.427 0.378 40.682 0.33C40.795 0.311 40.87 0.302 40.965 0.302C41.059 0.302 41.115 0.282 41.115 0.207C41.115 0.151 41.04 0.134 40.917 0.134C40.559 0.134 40.003 0.16 39.767 0.16C39.494 0.16 38.9 0.134 38.541 0.134C38.39 0.134 38.314 0.152 38.314 0.207C38.314 0.282 38.371 0.302 38.465 0.302C38.578 0.302 38.7 0.311999 38.804 0.339999C39.012 0.386999 39.106 0.548 39.125 0.867C39.144 1.17 39.144 1.434 39.144 2.868V4.528H39.142ZM32.159 2.867C32.159 1.433 32.159 1.169 32.178 0.865999C32.197 0.535999 32.272 0.377 32.527 0.329C32.64 0.31 32.792 0.301 32.895 0.301C33.008 0.301 33.065 0.281 33.065 0.217C33.065 0.151 33 0.132999 32.867 0.132999C32.5 0.132999 31.81 0.158999 31.585 0.158999C31.331 0.158999 30.736 0.132999 30.293 0.132999C30.151 0.132999 30.086 0.151 30.086 0.217C30.086 0.281 30.142 0.301 30.246 0.301C30.369 0.301 30.481 0.311 30.557 0.329C30.869 0.395 30.944 0.546999 30.963 0.865999C30.982 1.169 30.982 1.433 30.982 2.867V4.528C30.982 5.395 30.982 6.14 30.935 6.537C30.897 6.81 30.85 7.018 30.662 7.056C30.576 7.076 30.464 7.095 30.322 7.095C30.209 7.095 30.172 7.122 30.172 7.17C30.172 7.235 30.237 7.264 30.36 7.264C30.549 7.264 30.795 7.244 31.011 7.244C31.237 7.235 31.445 7.235 31.549 7.235C31.935 7.235 32.274 7.244 32.698 7.263C33.123 7.272 33.613 7.291 34.293 7.291C34.783 7.291 34.831 7.243 34.888 7.036C34.963 6.764 35.029 6.056 35.029 5.952C35.029 5.839 35.02 5.792 34.955 5.792C34.879 5.792 34.859 5.849 34.851 5.934C34.832 6.113 34.719 6.377 34.606 6.5C34.37 6.755 34.002 6.764 33.502 6.764C32.766 6.764 32.521 6.698 32.359 6.557C32.162 6.387 32.162 5.736 32.162 4.528V2.867H32.159ZM23.998 2.867C23.998 1.433 23.998 1.169 24.017 0.865999C24.037 0.535999 24.111 0.377 24.366 0.329C24.479 0.31 24.631 0.301 24.734 0.301C24.847 0.301 24.904 0.281 24.904 0.217C24.904 0.151 24.839 0.132999 24.707 0.132999C24.339 0.132999 23.649 0.158999 23.424 0.158999C23.17 0.158999 22.575 0.132999 22.132 0.132999C21.99 0.132999 21.925 0.151 21.925 0.217C21.925 0.281 21.981 0.301 22.085 0.301C22.208 0.301 22.32 0.311 22.396 0.329C22.708 0.395 22.783 0.546999 22.802 0.865999C22.821 1.169 22.821 1.433 22.821 2.867V4.528C22.821 5.395 22.821 6.14 22.774 6.537C22.736 6.81 22.689 7.018 22.501 7.056C22.416 7.076 22.303 7.095 22.162 7.095C22.048 7.095 22.011 7.122 22.011 7.17C22.011 7.235 22.076 7.264 22.199 7.264C22.388 7.264 22.634 7.244 22.85 7.244C23.077 7.235 23.284 7.235 23.388 7.235C23.774 7.235 24.113 7.244 24.538 7.263C24.963 7.272 25.453 7.291 26.132 7.291C26.623 7.291 26.67 7.243 26.727 7.036C26.802 6.764 26.868 6.056 26.868 5.952C26.868 5.839 26.859 5.792 26.794 5.792C26.718 5.792 26.699 5.849 26.69 5.934C26.671 6.113 26.558 6.377 26.445 6.5C26.21 6.755 25.841 6.764 25.341 6.764C24.605 6.764 24.36 6.698 24.198 6.557C24.001 6.387 24.001 5.736 24.001 4.528V2.867H23.998ZM14.404 4.527C14.404 5.395 14.404 6.14 14.357 6.537C14.32 6.81 14.272 7.018 14.085 7.056C14 7.076 13.887 7.095 13.745 7.095C13.632 7.095 13.594 7.122 13.594 7.17C13.594 7.235 13.66 7.264 13.782 7.264C13.97 7.264 14.217 7.244 14.433 7.244C14.66 7.235 14.866 7.235 14.97 7.235C15.253 7.235 15.545 7.244 15.951 7.263C16.356 7.272 16.876 7.291 17.584 7.291C17.94 7.291 18.025 7.291 18.092 7.047C18.139 6.858 18.215 6.217 18.215 6C18.215 5.904 18.215 5.829 18.139 5.829C18.073 5.829 18.054 5.866 18.036 5.971C17.97 6.358 17.855 6.556 17.611 6.67C17.366 6.782 16.969 6.782 16.724 6.782C15.761 6.782 15.61 6.64 15.591 5.989C15.582 5.716 15.591 4.847 15.591 4.526V3.781C15.591 3.724 15.6 3.686 15.648 3.686C15.875 3.686 16.809 3.696 16.988 3.715C17.338 3.752 17.47 3.894 17.517 4.083C17.545 4.204 17.545 4.327 17.554 4.422C17.554 4.47 17.573 4.507 17.639 4.507C17.723 4.507 17.723 4.403 17.723 4.327C17.723 4.262 17.752 3.884 17.761 3.695C17.799 3.216 17.836 3.064 17.836 3.007C17.836 2.949 17.808 2.932 17.77 2.932C17.723 2.932 17.686 2.979 17.621 3.054C17.537 3.149 17.394 3.177 17.169 3.196C16.951 3.216 15.865 3.216 15.657 3.216C15.6 3.216 15.592 3.178 15.592 3.112V0.724C15.592 0.658 15.611 0.629 15.657 0.629C15.846 0.629 16.838 0.648 16.999 0.667C17.471 0.724 17.564 0.837 17.631 1.007C17.678 1.119 17.688 1.28 17.688 1.347C17.688 1.432 17.707 1.479 17.772 1.479C17.838 1.479 17.856 1.422 17.866 1.375C17.886 1.263 17.904 0.847999 17.914 0.752999C17.941 0.317999 17.988 0.204999 17.988 0.139999C17.988 0.0929994 17.979 0.0549994 17.932 0.0549994C17.885 0.0549994 17.828 0.0829995 17.781 0.0929995C17.707 0.111999 17.556 0.130999 17.377 0.148999C17.197 0.158999 15.319 0.158999 15.018 0.158999C14.886 0.158999 14.669 0.148999 14.424 0.139999C14.188 0.139999 13.915 0.131 13.66 0.131C13.518 0.131 13.453 0.148999 13.453 0.214999C13.453 0.278999 13.509 0.299 13.612 0.299C13.745 0.299 13.904 0.308999 13.98 0.325999C14.292 0.393999 14.367 0.546 14.386 0.865C14.404 1.168 14.404 1.432 14.404 2.866V4.527ZM2.875 7.047C2.96 7.292 2.998 7.396 3.092 7.396C3.205 7.396 3.252 7.283 3.432 6.896C3.837 6.028 5.092 2.679 5.271 2.198H5.291L7.253 6.934C7.395 7.283 7.45 7.396 7.546 7.396C7.668 7.396 7.715 7.283 7.818 6.953C8.281 5.537 9.271 2.537 9.706 1.349C9.903 0.812 10.008 0.434 10.233 0.349C10.337 0.312 10.469 0.302 10.563 0.302C10.648 0.302 10.695 0.274 10.695 0.207C10.695 0.151 10.63 0.134 10.526 0.134C10.214 0.134 9.809 0.16 9.744 0.16C9.658 0.16 9.263 0.134 8.763 0.134C8.621 0.134 8.546 0.151999 8.546 0.217999C8.546 0.273999 8.611 0.302 8.706 0.302C9.073 0.302 9.158 0.434 9.158 0.585C9.158 0.717 9.131 0.914 9.063 1.132C8.733 2.236 7.979 4.727 7.809 5.359H7.781L5.818 0.605C5.696 0.303 5.648 0.162 5.546 0.162C5.47 0.162 5.403 0.237 5.31 0.502L3.48 5.427H3.451C3.282 4.898 2.404 2.039 2.245 1.416C2.132 0.990999 2.037 0.670999 2.037 0.547999C2.037 0.443999 2.056 0.379 2.141 0.341C2.207 0.303 2.302 0.302999 2.377 0.302999C2.471 0.302999 2.547 0.294 2.547 0.219C2.547 0.162 2.481 0.134999 2.349 0.134999C1.802 0.134999 1.386 0.160999 1.302 0.160999C1.217 0.160999 0.698 0.134999 0.207 0.134999C0.0739998 0.134999 0 0.153 0 0.219C0 0.294 0.0559996 0.302999 0.15 0.302999C0.235 0.302999 0.422999 0.322 0.526999 0.388C0.658999 0.482 0.763 0.708 0.877 1.058L2.875 7.047Z" fill="black"/>
<path d="M91.065 17.501C91.065 18.369 91.065 19.115 91.017 19.511C90.99 19.785 90.933 19.992 90.744 20.031C90.659 20.05 90.547 20.069 90.405 20.069C90.292 20.069 90.254 20.096 90.254 20.143C90.254 20.208 90.32 20.237 90.442 20.237C90.82 20.237 91.414 20.21 91.63 20.21C91.894 20.21 92.488 20.237 93.111 20.237C93.215 20.237 93.29 20.209 93.29 20.143C93.29 20.096 93.243 20.069 93.14 20.069C92.997 20.069 92.79 20.049 92.659 20.031C92.375 19.993 92.319 19.786 92.291 19.52C92.243 19.116 92.243 18.37 92.243 17.501V13.632L93.433 13.66C94.273 13.679 94.527 13.943 94.546 14.188L94.556 14.292C94.564 14.433 94.583 14.48 94.66 14.48C94.715 14.48 94.734 14.424 94.744 14.33C94.744 14.086 94.771 13.434 94.771 13.237C94.771 13.094 94.761 13.039 94.697 13.039C94.66 13.039 94.584 13.058 94.443 13.086C94.3 13.105 94.093 13.133 93.791 13.133H90.057C89.745 13.133 89.387 13.114 89.113 13.086C88.877 13.067 88.783 12.973 88.707 12.973C88.651 12.973 88.623 13.03 88.595 13.153C88.575 13.227 88.396 14.086 88.396 14.237C88.396 14.341 88.416 14.387 88.482 14.387C88.539 14.387 88.567 14.349 88.586 14.274C88.606 14.199 88.652 14.086 88.746 13.944C88.889 13.737 89.114 13.689 89.661 13.671L91.067 13.633V17.501H91.065ZM79.415 15.019H79.443C79.613 15.2 80.66 16.35 81.688 17.37C82.668 18.341 83.875 19.577 84.469 20.142C84.573 20.246 84.686 20.35 84.788 20.35C84.873 20.35 84.911 20.265 84.911 20.057L85.014 14.104C85.025 13.576 85.1 13.377 85.365 13.302C85.477 13.273 85.553 13.273 85.648 13.273C85.76 13.273 85.817 13.246 85.817 13.189C85.817 13.115 85.723 13.105 85.6 13.105C85.137 13.105 84.78 13.132 84.676 13.132C84.479 13.132 84.026 13.105 83.535 13.105C83.392 13.105 83.29 13.115 83.29 13.189C83.29 13.246 83.327 13.273 83.441 13.273C83.573 13.273 83.798 13.273 83.94 13.331C84.168 13.425 84.252 13.604 84.261 14.18L84.355 18.416H84.308C84.148 18.265 82.874 16.907 82.234 16.265C80.857 14.898 79.423 13.389 79.31 13.266C79.149 13.096 79.064 12.974 78.96 12.974C78.864 12.974 78.837 13.106 78.837 13.295L78.751 18.852C78.741 19.672 78.704 19.947 78.458 20.021C78.326 20.059 78.156 20.07 78.034 20.07C77.939 20.07 77.884 20.088 77.884 20.144C77.884 20.228 77.968 20.238 78.091 20.238C78.581 20.238 79.026 20.211 79.111 20.211C79.291 20.211 79.67 20.238 80.282 20.238C80.414 20.238 80.498 20.219 80.498 20.144C80.498 20.087 80.442 20.07 80.338 20.07C80.188 20.07 80.008 20.059 79.848 20.004C79.66 19.938 79.537 19.692 79.518 18.956L79.415 15.019ZM71.138 17.501C71.138 18.368 71.138 19.114 71.091 19.51C71.054 19.783 71.007 19.991 70.819 20.03C70.734 20.05 70.62 20.069 70.478 20.069C70.366 20.069 70.328 20.096 70.328 20.143C70.328 20.208 70.394 20.237 70.517 20.237C70.705 20.237 70.951 20.218 71.167 20.218C71.394 20.208 71.601 20.208 71.704 20.208C71.987 20.208 72.279 20.217 72.684 20.236C73.09 20.246 73.61 20.264 74.317 20.264C74.674 20.264 74.76 20.264 74.826 20.019C74.873 19.831 74.949 19.189 74.949 18.972C74.949 18.878 74.949 18.802 74.873 18.802C74.808 18.802 74.788 18.84 74.769 18.945C74.704 19.332 74.591 19.53 74.347 19.642C74.101 19.755 73.704 19.755 73.46 19.755C72.496 19.755 72.345 19.614 72.326 18.962C72.316 18.689 72.326 17.82 72.326 17.5V16.754C72.326 16.697 72.335 16.66 72.384 16.66C72.61 16.66 73.544 16.669 73.724 16.687C74.073 16.725 74.205 16.867 74.253 17.055C74.28 17.178 74.28 17.3 74.289 17.395C74.289 17.443 74.308 17.48 74.374 17.48C74.458 17.48 74.458 17.376 74.458 17.3C74.458 17.235 74.486 16.858 74.496 16.668C74.534 16.188 74.571 16.037 74.571 15.98C74.571 15.924 74.544 15.906 74.505 15.906C74.458 15.906 74.421 15.953 74.356 16.029C74.271 16.123 74.13 16.151 73.903 16.17C73.685 16.189 72.601 16.189 72.392 16.189C72.335 16.189 72.327 16.152 72.327 16.085V13.697C72.327 13.631 72.346 13.602 72.392 13.602C72.581 13.602 73.573 13.622 73.733 13.639C74.205 13.697 74.3 13.809 74.366 13.979C74.413 14.093 74.424 14.253 74.424 14.32C74.424 14.405 74.442 14.452 74.508 14.452C74.573 14.452 74.592 14.395 74.602 14.348C74.621 14.237 74.639 13.822 74.649 13.727C74.676 13.293 74.723 13.179 74.723 13.114C74.723 13.067 74.715 13.029 74.667 13.029C74.62 13.029 74.563 13.057 74.516 13.067C74.442 13.086 74.29 13.104 74.112 13.124C73.932 13.133 72.055 13.133 71.753 13.133C71.621 13.133 71.404 13.124 71.159 13.114C70.923 13.114 70.65 13.104 70.395 13.104C70.252 13.104 70.186 13.124 70.186 13.188C70.186 13.254 70.244 13.272 70.348 13.272C70.479 13.272 70.639 13.283 70.715 13.301C71.027 13.368 71.102 13.519 71.12 13.84C71.139 14.142 71.139 14.406 71.139 15.84L71.138 17.501ZM58.826 19.294C58.779 19.615 58.703 19.983 58.439 20.039C58.297 20.068 58.232 20.068 58.156 20.068C58.061 20.068 58.005 20.086 58.005 20.132C58.005 20.217 58.081 20.236 58.175 20.236C58.478 20.236 58.931 20.209 59.11 20.209C59.28 20.209 59.704 20.236 60.099 20.236C60.242 20.236 60.327 20.217 60.327 20.132C60.327 20.085 60.262 20.068 60.185 20.068C60.091 20.068 59.958 20.057 59.789 20.019C59.629 19.983 59.506 19.897 59.506 19.718C59.506 19.568 59.516 19.445 59.534 19.275L60.025 15.595H60.062C60.392 16.302 60.958 17.415 61.044 17.615C61.156 17.879 61.901 19.322 62.128 19.756C62.279 20.039 62.373 20.227 62.458 20.227C62.544 20.227 62.591 20.142 62.808 19.701L64.864 15.493H64.902L65.468 19.597C65.505 19.862 65.478 19.985 65.421 20.003C65.355 20.031 65.317 20.059 65.317 20.106C65.317 20.163 65.374 20.191 65.591 20.21C65.968 20.238 67.269 20.257 67.505 20.257C67.638 20.257 67.75 20.229 67.75 20.154C67.75 20.097 67.685 20.089 67.599 20.089C67.478 20.089 67.288 20.079 67.015 19.994C66.732 19.909 66.638 19.636 66.552 19.041L65.695 13.267C65.666 13.07 65.61 12.975 65.525 12.975C65.44 12.975 65.392 13.05 65.317 13.202L62.752 18.514L60.176 13.268C60.053 13.023 59.997 12.976 59.922 12.976C59.846 12.976 59.789 13.061 59.762 13.221L58.826 19.294ZM51.562 17.501C51.562 18.368 51.562 19.114 51.515 19.51C51.478 19.783 51.429 19.991 51.242 20.03C51.157 20.05 51.045 20.069 50.902 20.069C50.789 20.069 50.752 20.096 50.752 20.143C50.752 20.208 50.817 20.237 50.94 20.237C51.128 20.237 51.374 20.218 51.591 20.218C51.817 20.208 52.024 20.208 52.128 20.208C52.41 20.208 52.702 20.217 53.108 20.236C53.514 20.246 54.033 20.264 54.741 20.264C55.098 20.264 55.182 20.264 55.249 20.019C55.296 19.831 55.372 19.189 55.372 18.972C55.372 18.878 55.372 18.802 55.296 18.802C55.231 18.802 55.212 18.84 55.193 18.945C55.128 19.332 55.012 19.53 54.768 19.642C54.524 19.755 54.127 19.755 53.881 19.755C52.918 19.755 52.768 19.614 52.748 18.962C52.739 18.689 52.748 17.82 52.748 17.5V16.754C52.748 16.697 52.758 16.66 52.805 16.66C53.032 16.66 53.967 16.669 54.145 16.687C54.496 16.725 54.627 16.867 54.674 17.055C54.702 17.178 54.702 17.3 54.711 17.395C54.711 17.443 54.731 17.48 54.797 17.48C54.881 17.48 54.881 17.376 54.881 17.3C54.881 17.235 54.909 16.858 54.918 16.668C54.956 16.188 54.994 16.037 54.994 15.98C54.994 15.924 54.965 15.906 54.928 15.906C54.881 15.906 54.844 15.953 54.778 16.029C54.694 16.123 54.551 16.151 54.326 16.17C54.108 16.189 53.023 16.189 52.815 16.189C52.758 16.189 52.749 16.152 52.749 16.085V13.697C52.749 13.631 52.769 13.602 52.815 13.602C53.004 13.602 53.995 13.622 54.156 13.639C54.628 13.697 54.721 13.809 54.788 13.979C54.835 14.093 54.845 14.253 54.845 14.32C54.845 14.405 54.864 14.452 54.929 14.452C54.995 14.452 55.013 14.395 55.024 14.348C55.043 14.237 55.062 13.822 55.071 13.727C55.099 13.293 55.146 13.179 55.146 13.114C55.146 13.067 55.136 13.029 55.089 13.029C55.042 13.029 54.985 13.057 54.939 13.067C54.864 13.086 54.714 13.104 54.534 13.124C54.355 13.133 52.476 13.133 52.176 13.133C52.043 13.133 51.826 13.124 51.581 13.114C51.346 13.114 51.072 13.104 50.817 13.104C50.675 13.104 50.61 13.124 50.61 13.188C50.61 13.254 50.666 13.272 50.769 13.272C50.902 13.272 51.062 13.283 51.138 13.301C51.449 13.368 51.525 13.519 51.544 13.84C51.562 14.142 51.562 14.406 51.562 15.84V17.501ZM47.041 18.567C47.041 18.094 47.041 17.717 47.052 17.433C47.061 17.103 47.155 16.944 47.409 16.895C47.522 16.877 47.589 16.868 47.664 16.868C47.73 16.868 47.787 16.848 47.787 16.793C47.787 16.718 47.721 16.699 47.599 16.699C47.287 16.699 46.787 16.726 46.495 16.726C46.213 16.726 45.618 16.699 45.128 16.699C44.995 16.699 44.93 16.718 44.93 16.793C44.93 16.849 44.986 16.868 45.071 16.868C45.203 16.868 45.364 16.878 45.439 16.895C45.751 16.961 45.836 17.113 45.845 17.433C45.855 17.717 45.855 18.076 45.855 18.547V19.434C45.855 19.595 45.817 19.717 45.675 19.785C45.448 19.888 45.117 19.888 44.872 19.888C42.882 19.888 41.589 18.369 41.589 16.341C41.589 15.18 41.929 14.472 42.456 14.029C43.117 13.481 43.807 13.444 44.325 13.444C45.391 13.444 46.146 13.878 46.429 14.179C46.674 14.445 46.721 14.746 46.748 14.963C46.758 15.038 46.776 15.086 46.843 15.086C46.919 15.086 46.947 15.038 46.947 14.887C46.947 13.708 47.013 13.444 47.013 13.34C47.013 13.274 46.993 13.236 46.881 13.227C46.663 13.217 46.334 13.162 46.136 13.123C45.948 13.086 45.116 12.973 44.466 12.973C43.674 12.973 42.834 13.039 41.928 13.585C41.07 14.104 40.286 15.161 40.286 16.671C40.286 19.275 42.332 20.368 44.645 20.368C45.381 20.368 46.305 20.264 46.918 19.945C47.03 19.879 47.039 19.86 47.039 19.604V18.567H47.041ZM33.391 17.36C33.353 17.36 33.344 17.332 33.353 17.294L34.221 14.982C34.231 14.946 34.248 14.896 34.278 14.896C34.306 14.896 34.315 14.946 34.325 14.982L35.175 17.303C35.184 17.332 35.175 17.361 35.128 17.361H33.391V17.36ZM35.306 17.83C35.353 17.83 35.381 17.849 35.4 17.896L36.155 19.84C36.202 19.953 36.136 20.038 36.07 20.057C35.976 20.068 35.938 20.085 35.938 20.142C35.938 20.207 36.051 20.207 36.221 20.217C36.976 20.236 37.663 20.236 38.004 20.236C38.353 20.236 38.438 20.217 38.438 20.142C38.438 20.077 38.391 20.068 38.315 20.068C38.202 20.068 38.06 20.057 37.919 20.03C37.721 19.983 37.446 19.85 37.089 19.001C36.485 17.567 34.976 13.794 34.748 13.275C34.654 13.057 34.598 12.972 34.514 12.972C34.419 12.972 34.363 13.076 34.248 13.349L31.882 19.199C31.693 19.671 31.514 19.992 31.079 20.049C31.004 20.058 30.871 20.069 30.786 20.069C30.712 20.069 30.674 20.087 30.674 20.143C30.674 20.218 30.731 20.237 30.853 20.237C31.344 20.237 31.863 20.21 31.967 20.21C32.259 20.21 32.664 20.237 32.967 20.237C33.07 20.237 33.127 20.218 33.127 20.143C33.127 20.086 33.099 20.069 32.984 20.069H32.843C32.55 20.069 32.466 19.946 32.466 19.776C32.466 19.663 32.513 19.435 32.607 19.2L33.116 17.907C33.136 17.849 33.154 17.831 33.201 17.831L35.306 17.83ZM22.431 15.019H22.458C22.629 15.2 23.676 16.35 24.703 17.37C25.683 18.341 26.891 19.577 27.484 20.142C27.588 20.246 27.701 20.35 27.804 20.35C27.889 20.35 27.927 20.265 27.927 20.057L28.03 14.104C28.04 13.576 28.115 13.377 28.381 13.302C28.493 13.273 28.569 13.273 28.663 13.273C28.776 13.273 28.832 13.246 28.832 13.189C28.832 13.115 28.738 13.105 28.615 13.105C28.153 13.105 27.796 13.132 27.691 13.132C27.493 13.132 27.041 13.105 26.551 13.105C26.408 13.105 26.306 13.115 26.306 13.189C26.306 13.246 26.343 13.273 26.455 13.273C26.588 13.273 26.814 13.273 26.955 13.331C27.183 13.425 27.267 13.604 27.276 14.18L27.37 18.416H27.323C27.163 18.265 25.89 16.907 25.25 16.265C23.872 14.898 22.438 13.389 22.325 13.266C22.164 13.096 22.079 12.974 21.975 12.974C21.88 12.974 21.852 13.106 21.852 13.295L21.767 18.852C21.757 19.672 21.72 19.947 21.474 20.021C21.342 20.059 21.172 20.07 21.05 20.07C20.954 20.07 20.899 20.088 20.899 20.144C20.899 20.228 20.984 20.238 21.106 20.238C21.597 20.238 22.042 20.211 22.127 20.211C22.307 20.211 22.685 20.238 23.298 20.238C23.43 20.238 23.514 20.219 23.514 20.144C23.514 20.087 23.457 20.07 23.354 20.07C23.203 20.07 23.024 20.059 22.864 20.004C22.676 19.938 22.553 19.692 22.534 18.956L22.431 15.019ZM14.077 17.36C14.04 17.36 14.03 17.332 14.04 17.294L14.907 14.982C14.918 14.946 14.936 14.896 14.965 14.896C14.992 14.896 15.003 14.946 15.012 14.982L15.861 17.303C15.871 17.332 15.861 17.361 15.814 17.361H14.077V17.36ZM15.992 17.83C16.039 17.83 16.068 17.849 16.088 17.896L16.842 19.84C16.889 19.953 16.822 20.038 16.757 20.057C16.662 20.068 16.624 20.085 16.624 20.142C16.624 20.207 16.737 20.207 16.907 20.217C17.662 20.236 18.351 20.236 18.69 20.236C19.039 20.236 19.124 20.217 19.124 20.142C19.124 20.077 19.077 20.068 19.002 20.068C18.889 20.068 18.747 20.057 18.606 20.03C18.408 19.983 18.135 19.85 17.776 19.001C17.172 17.567 15.663 13.794 15.437 13.275C15.342 13.057 15.286 12.972 15.201 12.972C15.107 12.972 15.051 13.076 14.937 13.349L12.569 19.199C12.381 19.671 12.201 19.992 11.767 20.049C11.692 20.058 11.56 20.069 11.475 20.069C11.399 20.069 11.362 20.087 11.362 20.143C11.362 20.218 11.419 20.237 11.541 20.237C12.031 20.237 12.551 20.21 12.654 20.21C12.946 20.21 13.352 20.237 13.654 20.237C13.758 20.237 13.814 20.218 13.814 20.143C13.814 20.086 13.786 20.069 13.673 20.069H13.53C13.238 20.069 13.153 19.946 13.153 19.776C13.153 19.663 13.2 19.435 13.295 19.2L13.805 17.907C13.824 17.849 13.842 17.831 13.89 17.831L15.992 17.83ZM1.106 19.294C1.059 19.615 0.983 19.983 0.719 20.039C0.577 20.068 0.512 20.068 0.436 20.068C0.342 20.068 0.285 20.086 0.285 20.132C0.285 20.217 0.361 20.236 0.455 20.236C0.758 20.236 1.211 20.209 1.39 20.209C1.56 20.209 1.984 20.236 2.381 20.236C2.522 20.236 2.607 20.217 2.607 20.132C2.607 20.085 2.541 20.068 2.465 20.068C2.37 20.068 2.238 20.057 2.069 20.019C1.909 19.983 1.786 19.897 1.786 19.718C1.786 19.568 1.797 19.445 1.815 19.275L2.305 15.595H2.343C2.673 16.302 3.239 17.415 3.323 17.615C3.436 17.879 4.181 19.322 4.408 19.756C4.559 20.039 4.653 20.227 4.738 20.227C4.823 20.227 4.87 20.142 5.088 19.701L7.144 15.493H7.182L7.747 19.597C7.785 19.862 7.758 19.985 7.7 20.003C7.635 20.031 7.596 20.059 7.596 20.106C7.596 20.163 7.653 20.191 7.869 20.21C8.246 20.238 9.549 20.257 9.784 20.257C9.916 20.257 10.029 20.229 10.029 20.154C10.029 20.097 9.964 20.089 9.879 20.089C9.757 20.089 9.567 20.079 9.294 19.994C9.011 19.909 8.916 19.636 8.831 19.041L7.974 13.267C7.945 13.07 7.889 12.975 7.804 12.975C7.719 12.975 7.672 13.05 7.596 13.202L5.03 18.514L2.455 13.268C2.332 13.023 2.276 12.976 2.2 12.976C2.125 12.976 2.068 13.061 2.04 13.221L1.106 19.294Z" fill="black"/>
</svg>
